<?xml version="1.0" encoding="UTF-8"?>
<svg width="160px" height="78px" viewBox="0 0 160 78" version="1.1" xmlns="http://www.w3.org/2000/svg" xmlns:xlink="http://www.w3.org/1999/xlink">
    <title>切片</title>
    <g id="页面-1" stroke="none" stroke-width="1" fill="none" fill-rule="evenodd">
        <g id="PC组件概览备份-3" transform="translate(-665.000000, -2948.000000)">
            <g id="消息提示" transform="translate(665.000000, 2948.000000)">
                <g id="编组-106">
                    <rect id="矩形" stroke="#A1E6B5" stroke-width="0.571428571" fill="#DCFAE4" fill-rule="nonzero" x="0.285714286" y="0.285714286" width="159.428571" height="22.6518724" rx="2.28571429"></rect>
                    <g id="1组件/反馈/反馈浮层/内容元素/通过" transform="translate(12.000000, 8.000000)" fill="#1BA854">
                        <path d="M4,0.5 C5.93299662,0.5 7.5,2.06700338 7.5,4 C7.5,5.93299662 5.93299662,7.5 4,7.5 C2.06700338,7.5 0.5,5.93299662 0.5,4 C0.5,2.06700338 2.06700338,0.5 4,0.5 Z M5.65216275,2.56655343 C5.53566662,2.46621937 5.36131811,2.48100788 5.26274445,2.5995845 L5.26274445,2.5995845 L3.44884466,4.78131391 L2.7385926,3.91370128 L2.71941045,3.8925398 C2.61934099,3.79280976 2.45933615,3.78446626 2.3494293,3.87769098 C2.23219532,3.97713068 2.21635583,4.15447665 2.31405081,4.27380429 L2.31405081,4.27380429 L3.23510008,5.39880204 L3.25424591,5.41994432 C3.36723135,5.53274475 3.5535501,5.52643469 3.65830589,5.40042143 L3.65830589,5.40042143 L5.68461428,2.96292629 L5.70177414,2.94003632 C5.78097349,2.82246818 5.76137788,2.66061662 5.65216275,2.56655343 Z" id="形状结合"></path>
                    </g>
                </g>
                <g id="编组-105" transform="translate(0.000000, 8.000000)">
                    <rect id="矩形" stroke="#FFE0A6" stroke-width="0.571428571" fill="#FFF1D4" fill-rule="nonzero" x="0.285714286" y="19.5090153" width="159.428571" height="22.6518724" rx="2.28571429"></rect>
                    <g id="1组件/反馈/反馈浮层/内容元素/通过" transform="translate(12.000000, 27.223301)" fill="#FF991C">
                        <path d="M4,0.5 C5.93299662,0.5 7.5,2.06700338 7.5,4 C7.5,5.93299662 5.93299662,7.5 4,7.5 C2.06700338,7.5 0.5,5.93299662 0.5,4 C0.5,2.06700338 2.06700338,0.5 4,0.5 Z M4,5.5 C3.79289322,5.5 3.625,5.66789322 3.625,5.875 C3.625,6.08210678 3.79289322,6.25 4,6.25 C4.20710678,6.25 4.375,6.08210678 4.375,5.875 C4.375,5.66789322 4.20710678,5.5 4,5.5 Z M4,1.75 C3.86192881,1.75 3.75,1.86192881 3.75,2 L3.75,2 L3.75,4.75 C3.75,4.88807119 3.86192881,5 4,5 C4.13807119,5 4.25,4.88807119 4.25,4.75 L4.25,4.75 L4.25,2 C4.25,1.86192881 4.13807119,1.75 4,1.75 Z" id="形状结合"></path>
                    </g>
                    <rect id="矩形备份-104" fill="#FF991C" x="25" y="27" width="56" height="8" rx="1"></rect>
                    <rect id="矩形备份-116" fill="#1BA854" x="25" y="0" width="56" height="8" rx="1"></rect>
                </g>
                <g id="编组-48" transform="translate(0.000000, 54.446602)">
                    <rect id="矩形" stroke="#B3D5FF" stroke-width="0.571428571" fill="#E0EFFF" fill-rule="nonzero" x="0.285714286" y="0.285714286" width="159.428571" height="22.6518724" rx="2.28571429"></rect>
                    <rect id="矩形备份-105" fill="#5582F3" x="25" y="7.55339806" width="56" height="8" rx="1"></rect>
                    <g id="编组" transform="translate(12.000000, 8.000000)" fill="#5582F3" fill-rule="nonzero">
                        <g id="Group">
                            <path d="M4,0.5 C5.93299662,0.5 7.5,2.06700338 7.5,4 C7.5,5.93299662 5.93299662,7.5 4,7.5 C2.06700338,7.5 0.5,5.93299662 0.5,4 C0.5,2.06700338 2.06700338,0.5 4,0.5 Z M4.25,5.5 L3.5,5.5 C3.5,5.77616667 3.667875,6 3.875,6 C4.082125,6 4.25,5.77616667 4.25,5.5 L4.25,5.5 Z M4,2.25 C3.8725,2.25 3.76923077,2.34944444 3.76923077,2.47222222 L3.76923077,2.47222222 L3.76923077,2.60555556 C3.24261538,2.70855556 2.84615385,3.15688889 2.84615385,3.69444444 L2.84615385,3.69444444 L2.84615385,4.80555556 L2.73042308,4.80555556 C2.60326923,4.80555556 2.5,4.905 2.5,5.02777778 C2.5,5.15133333 2.60315385,5.25 2.73042308,5.25 L2.73042308,5.25 L5.26957692,5.25 C5.39673077,5.25 5.5,5.15055556 5.5,5.02777778 C5.5,4.90422222 5.39684615,4.80555556 5.26957692,4.80555556 L5.26957692,4.80555556 L5.15384615,4.80555556 L5.15384615,3.69444444 C5.15384615,3.15688889 4.75738462,2.70855556 4.23076923,2.60555556 L4.23076923,2.60555556 L4.23076923,2.47222222 C4.23076923,2.34944444 4.1275,2.25 4,2.25 Z" id="形状结合"></path>
                        </g>
                    </g>
                </g>
            </g>
        </g>
    </g>
</svg>