<?xml version="1.0" encoding="UTF-8"?>
<svg width="180px" height="103px" viewBox="0 0 180 103" version="1.1" xmlns="http://www.w3.org/2000/svg" xmlns:xlink="http://www.w3.org/1999/xlink">
    <title>图片编辑</title>
    <g id="页面-1" stroke="none" stroke-width="1" fill="none" fill-rule="evenodd">
        <g id="PC组件概览备份-3" transform="translate(-918.000000, -1527.000000)">
            <g id="编组" transform="translate(918.000000, 1527.000000)">
                <path d="M176.326531,0 C178.355332,7.14044899e-17 180,1.64466827 180,3.67346939 L180,99.3265306 C180,101.355332 178.355332,103 176.326531,103 L3.67346939,103 C1.64466827,103 3.80117016e-15,101.355332 0,99.3265306 L0,3.67346939 C1.9563273e-16,1.64466827 1.64466827,3.03721998e-15 3.67346939,0 L176.326531,0 Z M130,13 L52,13 L52,91 L130,91 L130,13 Z" id="形状结合" fill="#EDF1F7"></path>
                <g transform="translate(40.000000, 1.000000)" fill="#D4D9E3" fill-rule="nonzero" id="0.-全局样式/2.图片/0.默认图片备份">
                    <g>
                        <path d="M90.625,18.75 C92.3508898,18.75 93.75,20.1491102 93.75,21.875 L93.75,78.125 C93.75,79.8508898 92.3508898,81.25 90.625,81.25 L9.375,81.25 C7.64911016,81.25 6.25,79.8508898 6.25,78.125 L6.25,21.875 C6.25,20.1491102 7.64911016,18.75 9.375,18.75 L90.625,18.75 Z M87.5,25 L12.5,25 L12.5,75 L32.1288304,41.3505765 C32.9984563,39.8597892 34.9119492,39.3562385 36.4027364,40.2258643 C36.7166338,40.4089712 36.9961879,40.6454254 37.228831,40.9245972 L50,56.25 L63.250529,48.2996826 C64.6057577,47.4865454 66.3547486,47.8132482 67.3250539,49.0607836 L87.496875,74.996875 L87.5,25 Z M75,31.25 C78.4517797,31.25 81.25,34.0482203 81.25,37.5 C81.25,40.9517797 78.4517797,43.75 75,43.75 C71.5482203,43.75 68.75,40.9517797 68.75,37.5 C68.75,34.0482203 71.5482203,31.25 75,31.25 Z" id="颜色"></path>
                    </g>
                </g>
                <g id="编组-12" transform="translate(52.000000, 13.000000)" stroke="#EDF1F7" stroke-dasharray="0.9183673469387755" stroke-width="0.5">
                    <line x1="25.7142857" y1="0" x2="25.7142857" y2="78" id="路径-4"></line>
                    <line x1="51.7142857" y1="0" x2="51.7142857" y2="78" id="路径-4备份"></line>
                    <line x1="39" y1="-13.25" x2="39" y2="64.75" id="路径-4" transform="translate(39.000000, 25.750000) rotate(-90.000000) translate(-39.000000, -25.750000) "></line>
                    <line x1="39" y1="12.75" x2="39" y2="90.75" id="路径-4备份" transform="translate(39.000000, 51.750000) rotate(-90.000000) translate(-39.000000, -51.750000) "></line>
                </g>
                <g id="编组-7" transform="translate(50.000000, 11.000000)" stroke="#85B8FF" stroke-width="0.918367347">
                    <rect id="矩形" x="2" y="2" width="78" height="78"></rect>
                    <rect id="矩形" fill="#FFFFFF" x="0" y="0" width="4" height="4"></rect>
                    <rect id="矩形备份-8" fill="#FFFFFF" x="0" y="39" width="4" height="4"></rect>
                    <rect id="矩形备份-3" fill="#FFFFFF" x="78" y="0" width="4" height="4"></rect>
                    <rect id="矩形备份-9" fill="#FFFFFF" x="78" y="39" width="4" height="4"></rect>
                    <rect id="矩形备份-4" fill="#FFFFFF" x="78" y="78" width="4" height="4"></rect>
                    <rect id="矩形备份-5" fill="#FFFFFF" x="0" y="78" width="4" height="4"></rect>
                    <rect id="矩形备份-6" fill="#FFFFFF" x="39" y="78" width="4" height="4"></rect>
                    <rect id="矩形备份-7" fill="#FFFFFF" x="39" y="0" width="4" height="4"></rect>
                </g>
            </g>
        </g>
    </g>
</svg>