<?xml version="1.0" encoding="UTF-8"?>
<svg width="52px" height="52px" viewBox="0 0 52 52" version="1.1" xmlns="http://www.w3.org/2000/svg" xmlns:xlink="http://www.w3.org/1999/xlink">
    <title>切片</title>
    <g id="前端总览" stroke="none" stroke-width="1" fill="none" fill-rule="evenodd">
        <g id="PC组件概览备份-3" transform="translate(-457.000000, -344.000000)">
            <g id="编组-35" transform="translate(362.000000, 300.000000)">
                <g id="0.-全局样式/2.图片/0.默认图片" transform="translate(95.000000, 44.000000)">
                    <path d="M6.5,0 L45.5,0 C49.0898509,0 52,2.91014913 52,6.5 L52,45.5 C52,49.0898509 49.0898509,52 45.5,52 L6.5,52 C2.91014913,52 0,49.0898509 0,45.5 L0,6.5 C0,2.91014913 2.91014913,0 6.5,0 Z" id="颜色" fill="#BDC6D8"></path>
                    <g id="编组" transform="translate(10.400000, 10.400000)" fill="#FFFFFF" fill-rule="nonzero">
                        <g id="↳⚙️图标形状可替换">
                            <path d="M13.65,16.575 C14.1884776,16.575 14.625,17.0115224 14.625,17.55 L14.625,26.325 C14.625,26.8634776 14.1884776,27.3 13.65,27.3 L4.875,27.3 C4.33652237,27.3 3.9,26.8634776 3.9,26.325 L3.9,17.55 C3.9,17.0115224 4.33652237,16.575 4.875,16.575 L13.65,16.575 Z M26.325,16.575 C26.8634776,16.575 27.3,17.0115224 27.3,17.55 L27.3,26.325 C27.3,26.8634776 26.8634776,27.3 26.325,27.3 L17.55,27.3 C17.0115224,27.3 16.575,26.8634776 16.575,26.325 L16.575,17.55 C16.575,17.0115224 17.0115224,16.575 17.55,16.575 L26.325,16.575 Z M23.1144291,2.570138 L28.629862,8.08557089 C29.0106232,8.46633207 29.0106232,9.08366793 28.629862,9.46442911 L23.1144291,14.979862 C22.7336679,15.3606232 22.1163321,15.3606232 21.7355709,14.979862 L16.220138,9.46442911 C15.8393768,9.08366793 15.8393768,8.46633207 16.220138,8.08557089 L21.7355709,2.570138 C22.1163321,2.18937681 22.7336679,2.18937681 23.1144291,2.570138 Z M13.65,3.9 C14.1884776,3.9 14.625,4.33652237 14.625,4.875 L14.625,13.65 C14.625,14.1884776 14.1884776,14.625 13.65,14.625 L4.875,14.625 C4.33652237,14.625 3.9,14.1884776 3.9,13.65 L3.9,4.875 C3.9,4.33652237 4.33652237,3.9 4.875,3.9 L13.65,3.9 Z" id="颜色"></path>
                        </g>
                    </g>
                </g>
            </g>
        </g>
    </g>
</svg>