<?xml version="1.0" encoding="UTF-8"?>
<svg width="190px" height="107px" viewBox="0 0 190 107" version="1.1" xmlns="http://www.w3.org/2000/svg" xmlns:xlink="http://www.w3.org/1999/xlink">
    <title>切片</title>
    <g id="页面-1" stroke="none" stroke-width="1" fill="none" fill-rule="evenodd">
        <rect id="矩形" stroke="#D9D9D9" fill="#F6F8FB" x="-26" y="-16" width="242" height="139" rx="4"></rect>
        <g id="编组-12" transform="translate(16.000000, 45.000000)">
            <g id="输入框" fill="#D4D9E3">
                <rect id="矩形" x="0" y="16" width="139" height="1"></rect>
                <rect id="矩形备份-50" x="0" y="0" width="61" height="12" rx="1"></rect>
            </g>
            <g id="复制代码" transform="translate(144.500000, 2.500000)" fill="#BDC6D8">
                <path d="M11.9133606,0 C12.1787764,0 12.3381634,0.030912865 12.5047723,0.12040368 C12.6653586,0.20665963 12.794235,0.33609632 12.8801175,0.49738092 C12.9580831,0.643797545 12.9913939,0.784660825 12.9985034,0.996169765 L13,1.09136385 L13,9.90863615 C13,10.1752058 12.969221,10.3352858 12.8801175,10.5026191 C12.794235,10.6639037 12.6653586,10.7933403 12.5047723,10.8795963 C12.3589894,10.9579008 12.2187359,10.9913565 12.0081426,10.9984969 L11.9133606,11 L10,11 L10,11.9086361 C10,12.1418846 9.9764348,12.2936019 9.91085115,12.4399869 L9.88011755,12.5026191 C9.794235,12.6639037 9.66535865,12.7933403 9.50477225,12.8795963 C9.33816335,12.9690872 9.1787764,13 8.91336065,13 L8.91336065,13 L1.08663934,13 C0.82122361,13 0.661836655,12.9690872 0.495227755,12.8795963 C0.33464136,12.7933403 0.205765,12.6639037 0.119882455,12.5026191 C0.03077904,12.3352858 0,12.1752058 0,11.9086361 L0,11.9086361 L0,3.09136385 C0,2.82479415 0.03077904,2.66471421 0.119882455,2.49738092 C0.205765,2.33609632 0.33464136,2.20665963 0.495227755,2.12040368 C0.661836655,2.03091286 0.82122361,2 1.08663934,2 L1.08663934,2 L3,2 L3,1.09136385 C3,0.824794145 3.03077904,0.664714205 3.11988245,0.49738092 C3.205765,0.33609632 3.33464136,0.20665963 3.49522776,0.12040368 C3.64101055,0.042099215 3.78126405,0.008643495 3.99185735,0.001503075 L4.08663935,0 L11.9133606,0 Z M8.98553265,2.95693276 L0.99074642,2.95746478 L0.955714285,2.95986956 L0.953319915,2.99505402 L0.953319915,12.004946 L0.955714285,12.0396522 L0.99074642,12.0425352 L8.91336065,12.0434782 C8.9589756,12.0434782 8.98901155,12.0431822 9.0092536,12.0425352 L9.0092536,12.0425352 L9.0438095,12.0396522 L9.0466801,12.004946 L9.04761905,3.09136385 C9.04761905,3.04555059 9.04732425,3.01538406 9.0466801,2.99505402 L9.0466801,2.99505402 L9.0438095,2.95986956 L8.98553265,2.95693276 Z M12.0092536,0.957464785 L3.9907464,0.957464785 L3.9557143,0.959869565 L3.9533199,0.995054015 L3.9525,2 L8.91336065,2 C9.14559945,2 9.2966599,2.02366766 9.44241125,2.08953643 L9.50477225,2.12040368 C9.66535865,2.20665963 9.794235,2.33609632 9.88011755,2.49738092 C9.96922095,2.66471421 10,2.82479415 10,3.09136385 L10,3.09136385 L10,10.043 L12.0092536,10.0425352 L12.0438095,10.0396521 L12.0466801,10.004946 L12.047619,9.90863615 L12.0466801,0.995054015 L12.0438095,0.959869565 L12.0092536,0.957464785 Z M7.75,9.5 C8.02614235,9.5 8.25,9.72385765 8.25,10 C8.25,10.2564179 8.0569799,10.4677536 7.80831055,10.4966362 L7.75,10.5 L2.25,10.5 C1.97385762,10.5 1.75,10.2761424 1.75,10 C1.75,9.7435821 1.9430201,9.5322464 2.19168943,9.50336385 L2.25,9.5 L7.75,9.5 Z M7.75,7 C8.02614235,7 8.25,7.22385765 8.25,7.5 C8.25,7.7564179 8.0569799,7.9677536 7.80831055,7.99663615 L7.75,8 L2.25,8 C1.97385762,8 1.75,7.77614235 1.75,7.5 C1.75,7.2435821 1.9430201,7.0322464 2.19168943,7.00336385 L2.25,7 L7.75,7 Z M7.75,4.5 C8.02614235,4.5 8.25,4.72385765 8.25,5 C8.25,5.2564179 8.0569799,5.4677536 7.80831055,5.49663615 L7.75,5.5 L2.25,5.5 C1.97385762,5.5 1.75,5.27614235 1.75,5 C1.75,4.7435821 1.9430201,4.5322464 2.19168943,4.50336385 L2.25,4.5 L7.75,4.5 Z" id="形状结合"></path>
            </g>
        </g>
    </g>
</svg>