<?xml version="1.0" encoding="UTF-8"?>
<svg width="116px" height="135px" viewBox="0 0 116 135" version="1.1" xmlns="http://www.w3.org/2000/svg" xmlns:xlink="http://www.w3.org/1999/xlink">
    <title>编组 65</title>
    <defs>
        <filter x="-14.1%" y="-11.7%" width="128.1%" height="123.5%" filterUnits="objectBoundingBox" id="filter-1">
            <feOffset dx="0" dy="1" in="SourceAlpha" result="shadowOffsetOuter1"></feOffset>
            <feGaussianBlur stdDeviation="3" in="shadowOffsetOuter1" result="shadowBlurOuter1"></feGaussianBlur>
            <feColorMatrix values="0 0 0 0 0   0 0 0 0 0   0 0 0 0 0  0 0 0 0.08 0" type="matrix" in="shadowBlurOuter1" result="shadowMatrixOuter1"></feColorMatrix>
            <feMerge>
                <feMergeNode in="shadowMatrixOuter1"></feMergeNode>
                <feMergeNode in="SourceGraphic"></feMergeNode>
            </feMerge>
        </filter>
    </defs>
    <g id="前端总览" stroke="none" stroke-width="1" fill="none" fill-rule="evenodd">
        <g id="PC组件概览备份-3" transform="translate(-687.000000, -1306.000000)">
            <g id="编组-34备份" transform="translate(687.000000, 1306.000000)">
                <g id="编组-65" filter="url(#filter-1)" transform="translate(10.000000, 10.000000)">
                    <polygon id="Rectangle-12-Copy" fill="#FFFFFF" points="0 0 96 0 96 112 0 112"></polygon>
                    <g id="树节点备份" transform="translate(0.000000, 99.000000)">
                        <rect id="矩形" fill="#FFFFFF" x="0" y="0" width="96" height="16"></rect>
                        <g id="图标/通用操作/树展开" transform="translate(7.691358, 4.154321)" fill="#666666">
                            <path d="M4.31107617,4.79097427 C4.05428995,5.13303874 3.63781926,5.13285494 3.38117102,4.79097427 L2.05389482,3.02291191 C1.7971086,2.68084743 1.92825317,2.40354938 2.35474234,2.40354938 L5.33750485,2.40354938 C5.76044457,2.40354938 5.89500061,2.68103123 5.63835237,3.02291191 L4.31107617,4.79097427 Z" id="Path-Copy-2" transform="translate(3.845679, 3.725502) scale(-1, 1) rotate(-270.000000) translate(-3.845679, -3.725502) "></path>
                        </g>
                        <text id="A级菜单" font-family="MicrosoftYaHei, Microsoft YaHei" font-size="6.72993827" font-weight="normal" line-spacing="10.0949074"></text>
                    </g>
                    <g id="树节点备份" transform="translate(0.000000, 3.000000)">
                        <rect id="矩形" fill="#FFFFFF" x="0" y="0" width="96" height="16"></rect>
                        <g id="图标/通用操作/树展开" transform="translate(7.691358, 4.154321)" fill="#666666">
                            <path d="M4.31107617,4.79097427 C4.05428995,5.13303874 3.63781926,5.13285494 3.38117102,4.79097427 L2.05389482,3.02291191 C1.7971086,2.68084743 1.92825317,2.40354938 2.35474234,2.40354938 L5.33750485,2.40354938 C5.76044457,2.40354938 5.89500061,2.68103123 5.63835237,3.02291191 L4.31107617,4.79097427 Z" id="Path-Copy-2" transform="translate(3.845679, 3.725502) scale(-1, 1) rotate(-270.000000) translate(-3.845679, -3.725502) "></path>
                        </g>
                        <text id="A级菜单" font-family="MicrosoftYaHei, Microsoft YaHei" font-size="6.72993827" font-weight="normal" line-spacing="10.0949074"></text>
                    </g>
                    <g id="树二级节点" transform="translate(0.000000, 19.000000)">
                        <rect id="矩形备份" fill="#FFFFFF" x="0" y="0" width="96" height="16"></rect>
                        <g id="图标/通用操作/树展开" transform="translate(19.228395, 4.154321)" fill="#666666">
                            <path d="M4.31107617,4.79097427 C4.05428995,5.13303874 3.63781926,5.13285494 3.38117102,4.79097427 L2.05389482,3.02291191 C1.7971086,2.68084743 1.92825317,2.40354938 2.35474234,2.40354938 L5.33750485,2.40354938 C5.76044457,2.40354938 5.89500061,2.68103123 5.63835237,3.02291191 L4.31107617,4.79097427 Z" id="Path-Copy-2" transform="translate(3.845679, 3.725502) scale(-1, 1) rotate(-270.000000) translate(-3.845679, -3.725502) "></path>
                        </g>
                    </g>
                    <g id="树二级节点备份" transform="translate(0.000000, 83.000000)">
                        <rect id="矩形备份" fill="#FFFFFF" x="0" y="0" width="96" height="16"></rect>
                        <g id="图标/通用操作/树展开" transform="translate(19.228395, 4.154321)" fill="#666666">
                            <path d="M4.31107617,4.79097427 C4.05428995,5.13303874 3.63781926,5.13285494 3.38117102,4.79097427 L2.05389482,3.02291191 C1.7971086,2.68084743 1.92825317,2.40354938 2.35474234,2.40354938 L5.33750485,2.40354938 C5.76044457,2.40354938 5.89500061,2.68103123 5.63835237,3.02291191 L4.31107617,4.79097427 Z" id="Path-Copy-2" transform="translate(3.845679, 3.725502) scale(-1, 1) rotate(-270.000000) translate(-3.845679, -3.725502) "></path>
                        </g>
                    </g>
                    <rect id="矩形备份-17" fill="#D4D9E3" x="34" y="57" width="18" height="6" rx="1"></rect>
                    <rect id="矩形" x="0" y="67" width="96" height="16"></rect>
                    <rect id="矩形备份-17" fill="#D4D9E3" x="34" y="73" width="18" height="6" rx="1"></rect>
                    <rect id="矩形备份-17" fill="#D4D9E3" x="28" y="88" width="18" height="6" rx="1"></rect>
                    <rect id="矩形备份-17" fill="#D4D9E3" x="28" y="24" width="18" height="6" rx="1"></rect>
                    <rect id="矩形备份-17" fill="#D4D9E3" x="17" y="104" width="21" height="6" rx="1"></rect>
                    <rect id="矩形备份-17" fill="#D4D9E3" x="17" y="8" width="21" height="6" rx="1"></rect>
                    <g id="树二级节点2" transform="translate(0.000000, 35.000000)">
                        <rect id="矩形备份-2" fill="#276FF5" x="0" y="0" width="96" height="16"></rect>
                        <g id="图标/通用操作/树展开备份-2" transform="translate(19.228395, 4.154321)" fill="#FFFFFF">
                            <path d="M4.31107617,4.79097427 C4.05428995,5.13303874 3.63781926,5.13285494 3.38117102,4.79097427 L2.05389482,3.02291191 C1.7971086,2.68084743 1.92825317,2.40354938 2.35474234,2.40354938 L5.33750485,2.40354938 C5.76044457,2.40354938 5.89500061,2.68103123 5.63835237,3.02291191 L4.31107617,4.79097427 Z" id="Path-Copy-2" transform="translate(3.845679, 3.725502) scale(-1, 1) rotate(-360.000000) translate(-3.845679, -3.725502) "></path>
                        </g>
                    </g>
                    <rect id="矩形备份-17" fill="#FFFFFF" x="28" y="40" width="18" height="6" rx="1"></rect>
                </g>
            </g>
        </g>
    </g>
</svg>