<?xml version="1.0" encoding="UTF-8"?>
<svg width="100px" height="28px" viewBox="0 0 100 28" version="1.1" xmlns="http://www.w3.org/2000/svg" xmlns:xlink="http://www.w3.org/1999/xlink">
    <title>步进器</title>
    <g id="页面-1" stroke="none" stroke-width="1" fill="none" fill-rule="evenodd">
        <g id="PC组件概览备份-3" transform="translate(-172.000000, -1765.000000)">
            <g id="步进器" transform="translate(172.000000, 1765.000000)">
                <g id="1">
                    <rect id="Rectangle-21-Copy" stroke="#D9D9D9" fill="#FFFFFF" x="0.5" y="0.5" width="99" height="27" rx="2"></rect>
                    <g id="图标/通用操作/前翻" transform="translate(6.000000, 6.000000)" fill="#666666">
                        <path d="M2,7.5 L14,7.5 C14.2761424,7.5 14.5,7.72385763 14.5,8 C14.5,8.27614237 14.2761424,8.5 14,8.5 L2,8.5 C1.72385763,8.5 1.5,8.27614237 1.5,8 C1.5,7.72385763 1.72385763,7.5 2,7.5 Z" id="Combined-Shape"></path>
                    </g>
                    <g id="图标/通用操作/后翻" transform="translate(78.000000, 6.000000)" fill="#666666">
                        <path d="M8.00002174,1.5 C8.27615211,1.5 8.5,1.72384789 8.5,1.99997826 L8.499,7.5 L14.0000273,7.50002728 C14.2761546,7.50002728 14.5,7.72387269 14.5,8 C14.5,8.27612731 14.2761546,8.49997272 14.0000273,8.49997272 L8.499,8.499 L8.5,14.0000217 C8.5,14.2761521 8.27615211,14.5 8.00002174,14.5 C7.72389137,14.5 7.50004348,14.2761521 7.50004348,14.0000217 L7.5,8.499 L1.99997272,8.49997272 C1.72384541,8.49997272 1.5,8.27612731 1.5,8 C1.5,7.72387269 1.72384541,7.50002728 1.99997272,7.50002728 L7.5,7.5 L7.50004348,1.99997826 C7.50004348,1.72384789 7.72389137,1.5 8.00002174,1.5 Z" id="Combined-Shape"></path>
                    </g>
                    <text font-family="ArialMT, Arial" font-size="12" font-weight="normal" line-spacing="18" fill="#212121">
                        <tspan x="46.6630859" y="17">1</tspan>
                    </text>
                </g>
                <rect id="矩形" fill="#D9D9D9" x="27" y="1" width="1" height="26"></rect>
                <rect id="矩形" fill="#D9D9D9" x="72" y="1" width="1" height="26"></rect>
            </g>
        </g>
    </g>
</svg>