<?xml version="1.0" encoding="UTF-8"?>
<svg width="80px" height="80px" viewBox="0 0 80 80" version="1.1" xmlns="http://www.w3.org/2000/svg" xmlns:xlink="http://www.w3.org/1999/xlink">
    <title>切片</title>
    <g id="前端总览" stroke="none" stroke-width="1" fill="none" fill-rule="evenodd">
        <g id="PC组件概览备份-3" transform="translate(-705.000000, -329.000000)" fill="#D4D9E3" fill-rule="nonzero">
            <g id="编组-58" transform="translate(624.000000, 300.000000)">
                <g id="0.-全局样式/2.图片/0.默认图片" transform="translate(81.000000, 29.000000)">
                    <path d="M72.5,15 C73.8807119,15 75,16.1192881 75,17.5 L75,62.5 C75,63.8807119 73.8807119,65 72.5,65 L7.5,65 C6.11928813,65 5,63.8807119 5,62.5 L5,17.5 C5,16.1192881 6.11928813,15 7.5,15 L72.5,15 Z M70,20 L10,20 L10,60 L25.7030643,33.0804612 C26.398765,31.8878314 27.9295594,31.4849908 29.1221891,32.1806915 C29.373307,32.3271769 29.5969503,32.5163403 29.7830648,32.7396777 L40,45 L50.6004232,38.6397461 C51.6846061,37.9892363 53.0837989,38.2505986 53.8600431,39.2486269 L69.9975,59.9975 L70,20 Z M60,25 C62.7614237,25 65,27.2385763 65,30 C65,32.7614237 62.7614237,35 60,35 C57.2385763,35 55,32.7614237 55,30 C55,27.2385763 57.2385763,25 60,25 Z" id="颜色"></path>
                </g>
            </g>
        </g>
    </g>
</svg>