<?xml version="1.0" encoding="UTF-8"?>
<svg width="120px" height="84px" viewBox="0 0 120 84" version="1.1" xmlns="http://www.w3.org/2000/svg" xmlns:xlink="http://www.w3.org/1999/xlink">
    <title>切片</title>
    <defs>
        <linearGradient x1="50%" y1="0%" x2="50%" y2="100%" id="linearGradient-1">
            <stop stop-color="#D6DCE7" offset="0%"></stop>
            <stop stop-color="#D6DCE7" stop-opacity="0" offset="100%"></stop>
        </linearGradient>
    </defs>
    <g id="前端总览" stroke="none" stroke-width="1" fill="none" fill-rule="evenodd">
        <g id="PC组件概览备份-3" transform="translate(-423.000000, -3243.000000)">
            <g id="矩形备份-112" transform="translate(423.000000, 3243.000000)">
                <rect fill="#D4D9E3" x="38" y="74" width="43" height="10" rx="1"></rect>
                <g id="编组">
                    <g transform="translate(25.714286, 0.000000)" id="编组">
                        <path d="M45,6.42857143 L45,17.1428571 L55.7142857,17.1428571 L55.7142857,60 C55.7142857,61.1834673 54.7548959,62.1428571 53.5714286,62.1428571 L15,62.1428571 C13.8165327,62.1428571 12.8571429,61.1834673 12.8571429,60 L12.8571429,8.57142857 C12.8571429,7.38796125 13.8165327,6.42857143 15,6.42857143 L45,6.42857143 Z" id="路径" fill="#E2E8F3"></path>
                        <rect id="矩形" fill="#CAD0DB" x="17.1428571" y="17.1428571" width="6.42857143" height="6.42857143"></rect>
                        <polygon id="矩形" fill="#EEF4FF" points="45 6.42857143 55.7142857 17.1428571 45 17.1428571"></polygon>
                        <rect id="矩形" fill="#CAD0DB" x="17.1428571" y="27.8571429" width="34.2857143" height="4.28571429"></rect>
                        <rect id="矩形" fill="#CAD0DB" x="17.1428571" y="36.4285714" width="17.1428571" height="4.28571429"></rect>
                    </g>
                    <g transform="translate(77.142857, 28.571429)" fill="url(#linearGradient-1)" id="背景/云" opacity="0.300000012">
                        <g id="形状结合">
                            <path d="M2.14285714,27.8571429 L2.14285714,17.1428571 C2.14285714,11.2255205 6.93980625,6.42857143 12.8571429,6.42857143 C18.1868012,6.42857143 22.607563,10.32002 23.4330873,15.4165762 C24.1422339,15.1473128 24.9110565,15 25.7142857,15 C29.2646877,15 32.1428571,17.8781695 32.1428571,21.4285714 L32.1428571,27.8571429 L2.14285714,27.8571429 Z"></path>
                        </g>
                    </g>
                    <g transform="translate(8.571429, 22.857143)" fill="url(#linearGradient-1)" id="背景/云" opacity="0.300000012">
                        <g transform="translate(17.142857, 17.142857) scale(-1, 1) translate(-17.142857, -17.142857) " id="形状结合">
                            <path d="M2.14285714,27.8571429 L2.14285714,17.1428571 C2.14285714,11.2255205 6.93980625,6.42857143 12.8571429,6.42857143 C18.1868012,6.42857143 22.607563,10.32002 23.4330873,15.4165762 C24.1422339,15.1473128 24.9110565,15 25.7142857,15 C29.2646877,15 32.1428571,17.8781695 32.1428571,21.4285714 L32.1428571,27.8571429 L2.14285714,27.8571429 Z"></path>
                        </g>
                    </g>
                </g>
            </g>
        </g>
    </g>
</svg>