<?xml version="1.0" encoding="UTF-8"?>
<svg width="69px" height="77px" viewBox="0 0 69 77" version="1.1" xmlns="http://www.w3.org/2000/svg" xmlns:xlink="http://www.w3.org/1999/xlink">
    <title>编组 3@3x</title>
    <g id="xx" stroke="none" stroke-width="1" fill="none" fill-rule="evenodd">
        <g id="可视化组件缩略图" transform="translate(-449, -331)">
            <g id="编组-51备份" transform="translate(362, 300)">
                <g id="编组-3" transform="translate(87, 31)">
                    <path d="M4,0 L65,0 C67.209139,-4.05812251e-16 69,1.790861 69,4 L69,63 L69,63 L0,63 L0,4 C-2.705415e-16,1.790861 1.790861,2.705415e-16 4,0 Z" id="矩形" fill="#CED5E3" opacity="0.8"></path>
                    <g id="编组" transform="translate(17, 14.0025)" fill="#FFFFFF">
                        <path d="M1,2.35164163 L13.8407742,2.35164163 C14.3930589,2.35164163 14.8407742,2.79935688 14.8407742,3.35164163 L14.8407742,16.1906757 C14.8407742,16.7429604 14.3930589,17.1906757 13.8407742,17.1906757 L1,17.1906757 C0.44771525,17.1906757 3.38176876e-17,16.7429604 0,16.1906757 L0,3.35164163 C-6.76353751e-17,2.79935688 0.44771525,2.35164163 1,2.35164163 Z M1,20.1584825 L13.8407742,20.1584825 C14.3930589,20.1584825 14.8407742,20.6061977 14.8407742,21.1584825 L14.8407742,33.9975165 C14.8407742,34.5498013 14.3930589,34.9975165 13.8407742,34.9975165 L1,34.9975165 C0.44771525,34.9975165 3.38176876e-17,34.5498013 0,33.9975165 L0,21.1584825 C-6.76353751e-17,20.6061977 0.44771525,20.1584825 1,20.1584825 Z M18.808929,20.1584825 L31.6497032,20.1584825 C32.201988,20.1584825 32.6497032,20.6061977 32.6497032,21.1584825 L32.6497032,33.9975165 C32.6497032,34.5498013 32.201988,34.9975165 31.6497032,34.9975165 L18.808929,34.9975165 C18.2566443,34.9975165 17.808929,34.5498013 17.808929,33.9975165 L17.808929,21.1584825 C17.808929,20.6061977 18.2566443,20.1584825 18.808929,20.1584825 Z M26.6785031,0.292768836 L34.7089004,8.32205872 C35.0994476,8.71256011 35.0994847,9.34572509 34.7089833,9.73627228 C34.7089557,9.73629992 34.708928,9.73632755 34.7089004,9.73635519 L26.6784202,17.7655621 C26.2879054,18.1560312 25.6548043,18.1560312 25.2642895,17.7655621 L17.2338093,9.73635519 C16.8432621,9.3458538 16.843225,8.71268882 17.2337264,8.32214163 C17.233754,8.32211399 17.2337817,8.32208635 17.2338093,8.32205872 L25.2642895,0.292851762 C25.6548043,-0.0976172539 26.2879054,-0.0976172539 26.6784202,0.292851762 Z" id="形状结合"></path>
                    </g>
                    <g id="编组-2" transform="translate(0, 63)">
                        <path d="M0,0 L69,0 L69,10 C69,12.209139 67.209139,14 65,14 L4,14 C1.790861,14 1.3527075e-16,12.209139 0,10 L0,0 L0,0 Z" id="矩形" fill="#276FF5" opacity="0.7"></path>
                        <text id="SVG" font-family="MicrosoftYaHei, Microsoft YaHei" font-size="10" font-weight="normal" line-spacing="10" fill="#FFFFFF">
                            <tspan x="24" y="13">SVG</tspan>
                        </text>
                    </g>
                </g>
            </g>
        </g>
    </g>
</svg>