<?xml version="1.0" encoding="UTF-8"?>
<svg width="123px" height="16px" viewBox="0 0 123 16" version="1.1" xmlns="http://www.w3.org/2000/svg" xmlns:xlink="http://www.w3.org/1999/xlink">
    <title>编组 76</title>
    <g id="前端总览" stroke="none" stroke-width="1" fill="none" fill-rule="evenodd">
        <g id="PC组件概览备份-3" transform="translate(-422.000000, -2072.000000)">
            <g id="3.录入/12.单选/单选项/选中状态" transform="translate(422.000000, 2072.000000)">
                <g id="编组-56">
                    <g id="3.录入/12.单选/单选/选中状态">
                        <circle id="椭圆形" fill="#FFFFFF" cx="8" cy="8" r="7"></circle>
                        <g id="0.全局样式/1.图标/4.基础面性图标/单选未选备份" fill="#276FF5">
                            <path d="M8,1 C11.8659932,1 15,4.13400675 15,8 C15,11.8659932 11.8659932,15 8,15 C4.13400675,15 1,11.8659932 1,8 C1,4.13400675 4.13400675,1 8,1 Z M8,2 C4.6862915,2 2,4.6862915 2,8 C2,11.3137085 4.6862915,14 8,14 C11.3137085,14 14,11.3137085 14,8 C14,4.6862915 11.3137085,2 8,2 Z M8,3.5 C10.4852814,3.5 12.5,5.51471863 12.5,8 C12.5,10.4852814 10.4852814,12.5 8,12.5 C5.51471863,12.5 3.5,10.4852814 3.5,8 C3.5,5.51471863 5.51471863,3.5 8,3.5 Z" id="形状结合"></path>
                        </g>
                    </g>
                    <rect id="矩形备份-47" fill="#D4D9E3" x="20" y="2" width="32" height="12" rx="1"></rect>
                </g>
                <g id="编组-15" transform="translate(71.000000, 0.000000)">
                    <rect id="矩形备份-48" fill="#D4D9E3" x="20" y="2" width="32" height="12" rx="1"></rect>
                    <g id="3.录入/12.单选/单选/选中状态">
                        <circle id="椭圆形" fill="#FFFFFF" cx="8" cy="8" r="7"></circle>
                        <g id="0.全局样式/1.图标/4.基础面性图标/单选未选备份" fill="#666666">
                            <path d="M8,1 C11.8659932,1 15,4.13400675 15,8 C15,11.8659932 11.8659932,15 8,15 C4.13400675,15 1,11.8659932 1,8 C1,4.13400675 4.13400675,1 8,1 Z M8,2 C4.6862915,2 2,4.6862915 2,8 C2,11.3137085 4.6862915,14 8,14 C11.3137085,14 14,11.3137085 14,8 C14,4.6862915 11.3137085,2 8,2 Z" id="形状结合"></path>
                        </g>
                    </g>
                </g>
            </g>
        </g>
    </g>
</svg>