<?xml version="1.0" encoding="UTF-8"?>
<svg width="172px" height="105px" viewBox="0 0 172 105" version="1.1" xmlns="http://www.w3.org/2000/svg" xmlns:xlink="http://www.w3.org/1999/xlink">
    <title>弹出框</title>
    <defs>
        <rect id="path-1" x="0" y="0" width="160" height="93" rx="0.981595092"></rect>
        <filter x="-5.9%" y="-9.1%" width="111.9%" height="120.4%" filterUnits="objectBoundingBox" id="filter-2">
            <feOffset dx="0" dy="1" in="SourceAlpha" result="shadowOffsetOuter1"></feOffset>
            <feGaussianBlur stdDeviation="3" in="shadowOffsetOuter1" result="shadowBlurOuter1"></feGaussianBlur>
            <feColorMatrix values="0 0 0 0 0   0 0 0 0 0   0 0 0 0 0  0 0 0 0.08 0" type="matrix" in="shadowBlurOuter1"></feColorMatrix>
        </filter>
    </defs>
    <g id="页面-1" stroke="none" stroke-width="1" fill="none" fill-rule="evenodd">
        <g id="PC组件概览备份-3" transform="translate(-135.000000, -3138.000000)">
            <g id="编组" transform="translate(141.000000, 3143.000000)">
                <g id="矩形">
                    <use fill="black" fill-opacity="1" filter="url(#filter-2)" xlink:href="#path-1"></use>
                    <use fill="#FFFFFF" fill-rule="evenodd" xlink:href="#path-1"></use>
                </g>
                <path d="M0.981595092,0 L159.018405,0 C159.560525,1.54194136e-14 160,0.439475092 160,0.981595092 L160,24 L160,24 L0,24 L0,0.981595092 C-6.63905523e-17,0.439475092 0.439475092,1.54287576e-15 0.981595092,0 Z" id="矩形" fill="#EDF1F7"></path>
                <rect id="矩形备份-92" fill="#BDC6D8" x="7" y="8" width="36" height="8" rx="1"></rect>
                <g transform="translate(145.454545, 9.175199)" fill="#C2CBD0" id="0.-全局样式/1.图标/1.系统图标/线性图标/时间">
                    <g transform="translate(3.272727, 3.305795) scale(1, -1) translate(-3.272727, -3.305795) ">
                        <path d="M0.810915373,0.169807906 L3.27233908,2.65634251 L5.73453917,0.169807906 C5.90905448,-0.00647069747 6.18236215,-0.0236226525 6.37388583,0.109028491 L6.40733908,0.136342505 L6.43892183,0.174456634 C6.57344994,0.369826805 6.55540192,0.63925302 6.37734521,0.819108808 L3.91533908,3.30534251 L6.37734521,5.79248057 C6.55186052,5.96875918 6.5688409,6.24482832 6.43751665,6.43828715 L6.40633908,6.47434251 L6.37274298,6.50398027 C6.17932707,6.63986764 5.91259589,6.62163726 5.73453917,6.44178147 L3.27233908,3.95434251 L0.810915373,6.44178147 C0.636400061,6.61806008 0.363092399,6.63521203 0.171568712,6.50256089 L0.136339079,6.47234251 L0.106532711,6.43713275 C-0.0279953936,6.24176257 -0.00994737416,5.97233636 0.16810934,5.79248057 L2.62933908,3.30534251 L0.16810934,0.819108808 C-0.00640597196,0.642830204 -0.0233863583,0.36676106 0.107937893,0.173302231 L0.135339079,0.138342505 L0.172711568,0.107609111 C0.366127478,-0.0282782572 0.632858659,-0.0100478818 0.810915373,0.169807906 Z" id="关闭"></path>
                    </g>
                </g>
                <rect id="矩形备份-12" fill="#FAFAFA" x="0" y="75" width="160" height="1"></rect>
                <g id="2.按钮/1.按钮/3.小按钮/1.主按钮/1.默认备份" transform="translate(57.000000, 78.000000)" fill="#FFFFFF" stroke="#CCCCCC" stroke-width="0.5">
                    <g id="↳⚙️按钮样式">
                        <rect id="↳⚙️按钮状态" x="0.25" y="0.25" width="22.5" height="11.5" rx="1.6"></rect>
                    </g>
                </g>
                <g id="↳⚙️按钮样式" transform="translate(84.000000, 78.000000)" fill="#276FF5">
                    <rect id="↳⚙️按钮状态" x="0" y="0" width="23" height="12" rx="1.6"></rect>
                </g>
            </g>
        </g>
    </g>
</svg>