<?xml version="1.0" encoding="UTF-8"?>
<svg width="240px" height="139px" viewBox="0 0 240 139" version="1.1" xmlns="http://www.w3.org/2000/svg" xmlns:xlink="http://www.w3.org/1999/xlink">
    <title>component-overview-datepicker</title>
    <defs>
        <rect id="path-1" x="0" y="0" width="242" height="139" rx="4"></rect>
        <rect id="path-3" x="0" y="0" width="171" height="164.74958"></rect>
        <filter x="-5.8%" y="-4.9%" width="111.7%" height="112.1%" filterUnits="objectBoundingBox" id="filter-4">
            <feOffset dx="0" dy="2" in="SourceAlpha" result="shadowOffsetOuter1"></feOffset>
            <feGaussianBlur stdDeviation="3" in="shadowOffsetOuter1" result="shadowBlurOuter1"></feGaussianBlur>
            <feColorMatrix values="0 0 0 0 0   0 0 0 0 0   0 0 0 0 0  0 0 0 0.08 0" type="matrix" in="shadowBlurOuter1"></feColorMatrix>
        </filter>
    </defs>
    <g id="前端总览" stroke="none" stroke-width="1" fill="none" fill-rule="evenodd">
        <g id="PC组件概览备份-3" transform="translate(-101.000000, -1806.000000)">
            <g id="编组" transform="translate(100.000000, 1806.000000)">
                <mask id="mask-2" fill="white">
                    <use xlink:href="#path-1"></use>
                </mask>
                <g id="蒙版"></g>
                <g mask="url(#mask-2)">
                    <g transform="translate(36.000000, 23.000000)">
                        <g id="0.-全局样式/1.图标/1.系统图标/线性图标/时间" transform="translate(142.987235, 1.188741)" fill="#276FF5">
                            <path d="M2.39629907,1.7994493 L2.39629907,2.3984493 L1.19859813,2.39926573 L1.19829907,4.19863287 L8.38929907,4.19863287 L8.39018692,2.39926573 L7.19129907,2.3984493 L7.19129907,1.7994493 L8.39018692,1.7994493 C8.68807228,1.7994493 8.93519623,2.01697234 8.98164217,2.30197239 L8.98948598,2.39926573 L8.98948598,7.79761364 C8.98948598,8.09575616 8.77215056,8.34309345 8.48739634,8.38957949 L8.39018692,8.39743007 L1.19859813,8.39743007 C0.90071277,8.39743007 0.653588816,8.17990703 0.607142878,7.89490698 L0.599299065,7.79761364 L0.599299065,2.39926573 C0.599299065,2.10112321 0.816634484,1.85378592 1.10138871,1.80729989 L1.19859813,1.7994493 L2.39629907,1.7994493 Z M8.38929907,4.79763287 L1.19829907,4.79763287 L1.19859813,7.79761364 L8.39018692,7.79761364 L8.38929907,4.79763287 Z M3.29614486,1.19963287 C3.46163673,1.19963287 3.59579439,1.33379053 3.59579439,1.4992824 L3.59579439,2.69943264 C3.59579439,2.8649245 3.46163673,2.99908217 3.29614486,2.99908217 C3.13065299,2.99908217 2.99649533,2.8649245 2.99649533,2.69943264 L2.99649533,1.4992824 C2.99649533,1.33379053 3.13065299,1.19963287 3.29614486,1.19963287 Z M6.29264019,1.19963287 C6.45813205,1.19963287 6.59228972,1.33379053 6.59228972,1.4992824 L6.59228972,2.69943264 C6.59228972,2.8649245 6.45813205,2.99908217 6.29264019,2.99908217 C6.12714832,2.99908217 5.99299065,2.8649245 5.99299065,2.69943264 L5.99299065,1.4992824 C5.99299065,1.33379053 6.12714832,1.19963287 6.29264019,1.19963287 Z M5.39329907,1.7994493 L5.39329907,2.3984493 L4.19429907,2.3984493 L4.19429907,1.7994493 L5.39329907,1.7994493 Z" id="形状结合"></path>
                        </g>
                        <g id="编组-26">
                            <rect id="矩形备份-13" fill="#276FF5" x="0" y="10.9476224" width="152.926829" height="1"></rect>
                            <rect id="矩形" fill="#D4D9E3" x="0" y="0" width="38.3551402" height="9.59706294" rx="1.6"></rect>
                        </g>
                        <g id="编组-4" transform="translate(0.000000, 12.796084)">
                            <g id="矩形">
                                <use fill="black" fill-opacity="1" filter="url(#filter-4)" xlink:href="#path-3"></use>
                                <use fill="#FFFFFF" fill-rule="evenodd" xlink:href="#path-3"></use>
                            </g>
                            <rect id="矩形" fill="#F8FBFF" x="0" y="0" width="171" height="23.7001399"></rect>
                            <g id="编组-2" transform="translate(11.186916, 6.396553)">
                                <g id="编组" transform="translate(113.467290, 0.001489)" fill="#CCCCCC" fill-rule="nonzero">
                                    <g id="0.-全局样式/1.图标/3.其它图标/动作图标/进入">
                                        <path d="M6.44622949,9.07599134 C6.24144375,9.28095387 6.24144375,9.61326379 6.44622949,9.81822631 C6.65101523,10.0231888 6.98303851,10.0231888 7.18782425,9.81822631 L11.0333266,5.9694042 C11.2381123,5.76444167 11.2381123,5.43213176 11.0333266,5.22716923 L7.18782425,1.37834711 C6.98303851,1.17338459 6.65101523,1.17338459 6.44622949,1.37834711 C6.24144375,1.58330964 6.24144375,1.91561956 6.44622949,2.12058208 L9.92093445,5.59828671 L6.44622949,9.07599134 Z" id="颜色"></path>
                                    </g>
                                </g>
                                <g id="编组" transform="translate(27.168224, 0.001489)" fill="#CCCCCC" fill-rule="nonzero">
                                    <g id="0.-全局样式/1.图标/3.其它图标/动作图标/进入备份-3" transform="translate(5.593458, 5.598287) scale(-1, 1) translate(-5.593458, -5.598287) ">
                                        <path d="M6.44622949,9.07599134 C6.24144375,9.28095387 6.24144375,9.61326379 6.44622949,9.81822631 C6.65101523,10.0231888 6.98303851,10.0231888 7.18782425,9.81822631 L11.0333266,5.9694042 C11.2381123,5.76444167 11.2381123,5.43213176 11.0333266,5.22716923 L7.18782425,1.37834711 C6.98303851,1.17338459 6.65101523,1.17338459 6.44622949,1.37834711 C6.24144375,1.58330964 6.24144375,1.91561956 6.44622949,2.12058208 L9.92093445,5.59828671 L6.44622949,9.07599134 Z" id="颜色"></path>
                                    </g>
                                </g>
                                <g id="编组" transform="translate(137.439252, 0.001489)" fill="#CCCCCC" fill-rule="nonzero">
                                    <g id="0.-全局样式/1.图标/3.其它图标/动作图标/进入备份">
                                        <g id="0.-全局样式/1.图标/3.其它图标/动作图标/进入备份">
                                            <path d="M6.31467379,9.07599134 C6.11406735,9.28095387 6.11406735,9.61326379 6.31467379,9.81822631 C6.51528022,10.0231888 6.84052752,10.0231888 7.04113396,9.81822631 L10.8081567,5.9694042 C11.0087631,5.76444167 11.0087631,5.43213176 10.8081567,5.22716923 L7.04113396,1.37834711 C6.84052752,1.17338459 6.51528022,1.17338459 6.31467379,1.37834711 C6.11406735,1.58330964 6.11406735,1.91561956 6.31467379,2.12058208 L9.7184664,5.59828671 L6.31467379,9.07599134 Z" id="颜色"></path>
                                        </g>
                                        <g id="0.-全局样式/1.图标/3.其它图标/动作图标/进入备份" transform="translate(3.424566, 0.000000)">
                                            <path d="M6.31467379,9.07599134 C6.11406735,9.28095387 6.11406735,9.61326379 6.31467379,9.81822631 C6.51528022,10.0231888 6.84052752,10.0231888 7.04113396,9.81822631 L10.8081567,5.9694042 C11.0087631,5.76444167 11.0087631,5.43213176 10.8081567,5.22716923 L7.04113396,1.37834711 C6.84052752,1.17338459 6.51528022,1.17338459 6.31467379,1.37834711 C6.11406735,1.58330964 6.11406735,1.91561956 6.31467379,2.12058208 L9.7184664,5.59828671 L6.31467379,9.07599134 Z" id="颜色"></path>
                                        </g>
                                    </g>
                                </g>
                                <g id="编组" transform="translate(0.000000, 0.001489)" fill="#CCCCCC" fill-rule="nonzero">
                                    <g id="0.-全局样式/1.图标/3.其它图标/动作图标/进入备份-2" transform="translate(7.191589, 5.598287) scale(-1, 1) translate(-7.191589, -5.598287) ">
                                        <g id="0.-全局样式/1.图标/3.其它图标/动作图标/进入备份">
                                            <path d="M6.31467379,9.07599134 C6.11406735,9.28095387 6.11406735,9.61326379 6.31467379,9.81822631 C6.51528022,10.0231888 6.84052752,10.0231888 7.04113396,9.81822631 L10.8081567,5.9694042 C11.0087631,5.76444167 11.0087631,5.43213176 10.8081567,5.22716923 L7.04113396,1.37834711 C6.84052752,1.17338459 6.51528022,1.17338459 6.31467379,1.37834711 C6.11406735,1.58330964 6.11406735,1.91561956 6.31467379,2.12058208 L9.7184664,5.59828671 L6.31467379,9.07599134 Z" id="颜色"></path>
                                        </g>
                                        <g id="0.-全局样式/1.图标/3.其它图标/动作图标/进入备份" transform="translate(3.424566, 0.000000)">
                                            <path d="M6.31467379,9.07599134 C6.11406735,9.28095387 6.11406735,9.61326379 6.31467379,9.81822631 C6.51528022,10.0231888 6.84052752,10.0231888 7.04113396,9.81822631 L10.8081567,5.9694042 C11.0087631,5.76444167 11.0087631,5.43213176 10.8081567,5.22716923 L7.04113396,1.37834711 C6.84052752,1.17338459 6.51528022,1.17338459 6.31467379,1.37834711 C6.11406735,1.58330964 6.11406735,1.91561956 6.31467379,2.12058208 L9.7184664,5.59828671 L6.31467379,9.07599134 Z" id="颜色"></path>
                                        </g>
                                    </g>
                                </g>
                                <text id="2021年-10月" font-family="MicrosoftYaHeiSemibold, Microsoft YaHei" font-size="8.36731518" font-weight="500" fill="#666666">
                                    <tspan x="51.1401869" y="9">2021年</tspan>
                                    <tspan x="76.8100313" y="9" font-family="Helvetica-Bold, Helvetica" font-weight="bold">   </tspan>
                                    <tspan x="83.7841558" y="9">10月</tspan>
                                </text>
                                <text id="一" font-family="MicrosoftYaHeiSemibold, Microsoft YaHei" font-size="8.36731518" font-weight="500" fill="#666666">
                                    <tspan x="0.610734936" y="34.5921678">一</tspan>
                                </text>
                                <text id="二" font-family="MicrosoftYaHeiSemibold, Microsoft YaHei" font-size="8.36731518" font-weight="500" fill="#666666">
                                    <tspan x="24.5826976" y="34.5921678">二</tspan>
                                </text>
                                <text id="三" font-family="MicrosoftYaHeiSemibold, Microsoft YaHei" font-size="8.36731518" font-weight="500" fill="#666666">
                                    <tspan x="48.5546602" y="34.5921678">三</tspan>
                                </text>
                                <text id="四" font-family="MicrosoftYaHeiSemibold, Microsoft YaHei" font-size="8.36731518" font-weight="500" fill="#666666">
                                    <tspan x="72.5266228" y="34.5921678">四</tspan>
                                </text>
                                <text id="五" font-family="MicrosoftYaHeiSemibold, Microsoft YaHei" font-size="8.36731518" font-weight="500" fill="#666666">
                                    <tspan x="96.4985854" y="34.5921678">五</tspan>
                                </text>
                                <text id="六" font-family="MicrosoftYaHeiSemibold, Microsoft YaHei" font-size="8.36731518" font-weight="500" fill="#666666">
                                    <tspan x="120.470548" y="34.5921678">六</tspan>
                                </text>
                                <text id="日" font-family="MicrosoftYaHeiSemibold, Microsoft YaHei" font-size="8.36731518" font-weight="500" fill="#666666">
                                    <tspan x="144.442511" y="34.5921678">日</tspan>
                                </text>
                            </g>
                            <g id="编组-101" transform="translate(11.186916, 86.373566)">
                                <rect id="矩形备份-5" fill="#276FF5" x="71.9158879" y="0" width="9.58878505" height="9.59706294" rx="1.0459144"></rect>
                                <rect id="矩形备份-54" fill="#EDF1F7" x="23.9719626" y="0" width="9.58878505" height="9.59706294" rx="1.0459144"></rect>
                                <rect id="矩形备份-54" fill="#EDF1F7" x="95.8878505" y="0" width="9.58878505" height="9.59706294" rx="1.0459144"></rect>
                                <rect id="矩形备份-54" fill="#EDF1F7" x="47.9439252" y="0" width="9.58878505" height="9.59706294" rx="1.0459144"></rect>
                                <rect id="矩形备份-54" fill="#EDF1F7" x="119.859813" y="0" width="9.58878505" height="9.59706294" rx="1.0459144"></rect>
                                <rect id="矩形备份-54" fill="#EDF1F7" x="0" y="0" width="9.58878505" height="9.59706294" rx="1.0459144"></rect>
                                <rect id="矩形备份-54" fill="#EDF1F7" x="143.831776" y="0" width="9.58878505" height="9.59706294" rx="1.0459144"></rect>
                            </g>
                            <g id="编组-101备份-4" transform="translate(11.186916, 67.179441)" fill="#EDF1F7">
                                <rect id="矩形备份-5" x="71.9158879" y="0" width="9.58878505" height="9.59706294" rx="1.0459144"></rect>
                                <rect id="矩形备份-54" x="23.9719626" y="0" width="9.58878505" height="9.59706294" rx="1.0459144"></rect>
                                <rect id="矩形备份-54" x="95.8878505" y="0" width="9.58878505" height="9.59706294" rx="1.0459144"></rect>
                                <rect id="矩形备份-54" x="47.9439252" y="0" width="9.58878505" height="9.59706294" rx="1.0459144"></rect>
                                <rect id="矩形备份-54" x="119.859813" y="0" width="9.58878505" height="9.59706294" rx="1.0459144"></rect>
                                <rect id="矩形备份-54" x="0" y="0" width="9.58878505" height="9.59706294" rx="1.0459144"></rect>
                                <rect id="矩形备份-54" x="143.831776" y="0" width="9.58878505" height="9.59706294" rx="1.0459144"></rect>
                            </g>
                            <g id="编组-101备份-5" transform="translate(11.186916, 47.985315)">
                                <rect id="矩形备份-5" fill="#EDF1F7" x="71.9158879" y="0" width="9.58878505" height="9.59706294" rx="1.0459144"></rect>
                                <rect id="矩形备份-54" fill="#F8FBFF" x="23.9719626" y="0" width="9.58878505" height="9.59706294" rx="1.0459144"></rect>
                                <rect id="矩形备份-54" fill="#EDF1F7" x="95.8878505" y="0" width="9.58878505" height="9.59706294" rx="1.0459144"></rect>
                                <rect id="矩形备份-54" fill="#EDF1F7" x="47.9439252" y="0" width="9.58878505" height="9.59706294" rx="1.0459144"></rect>
                                <rect id="矩形备份-54" fill="#EDF1F7" x="119.859813" y="0" width="9.58878505" height="9.59706294" rx="1.0459144"></rect>
                                <rect id="矩形备份-54" fill="#F8FBFF" x="0" y="0" width="9.58878505" height="9.59706294" rx="1.0459144"></rect>
                                <rect id="矩形备份-54" fill="#EDF1F7" x="143.831776" y="0" width="9.58878505" height="9.59706294" rx="1.0459144"></rect>
                            </g>
                            <ellipse id="椭圆形" fill="#276FF5" cx="63.9252336" cy="79.9755245" rx="1.59813084" ry="1.59951049"></ellipse>
                        </g>
                    </g>
                </g>
            </g>
        </g>
    </g>
</svg>