<?xml version="1.0" encoding="UTF-8"?>
<svg width="104px" height="20px" viewBox="0 0 104 20" version="1.1" xmlns="http://www.w3.org/2000/svg" xmlns:xlink="http://www.w3.org/1999/xlink">
    <title>编组 50</title>
    <g id="前端总览" stroke="none" stroke-width="1" fill="none" fill-rule="evenodd">
        <g id="PC组件概览备份-3" transform="translate(-955.000000, -2272.000000)">
            <g id="编组-50" transform="translate(955.000000, 2272.000000)">
                <g id="编组">
                    <rect id="矩形" fill="#276FF5" x="0" y="0" width="40" height="20" rx="10"></rect>
                    <path d="M39,10 C39,14.9702544 34.9709589,19 30,19 C25.0297456,19 21,14.9709589 21,10 C21,5.02974561 25.0297456,1 29.9992955,1 C34.9709589,1.00070451 39,5.02974561 39,10 L39,10 Z" id="Path" fill="#FFFFFF" transform="translate(30.000000, 10.000000) rotate(-180.000000) translate(-30.000000, -10.000000) "></path>
                </g>
                <g id="编组" transform="translate(64.000000, 0.000000)">
                    <rect id="矩形" fill="#D4D9E3" x="0" y="0" width="40" height="20" rx="10"></rect>
                    <path d="M19,10 C19,14.9702544 14.9709589,19 10,19 C5.02974561,19 1,14.9709589 1,10 C1,5.02974561 5.02974561,1 9.99929549,1 C14.9709589,1.00070451 19,5.02974561 19,10 L19,10 Z" id="Path" fill="#FFFFFF" transform="translate(10.000000, 10.000000) rotate(-180.000000) translate(-10.000000, -10.000000) "></path>
                </g>
            </g>
        </g>
    </g>
</svg>