<?xml version="1.0" encoding="UTF-8"?>
<svg width="110px" height="14px" viewBox="0 0 110 14" version="1.1" xmlns="http://www.w3.org/2000/svg" xmlns:xlink="http://www.w3.org/1999/xlink">
    <title>3.录入/14.评分/标准评价/组合/默认状态</title>
    <g id="前端总览" stroke="none" stroke-width="1" fill="none" fill-rule="evenodd">
        <g id="PC组件概览备份-3" transform="translate(-690.000000, -2072.000000)">
            <g id="编组-67备份" transform="translate(689.000000, 2070.000000)">
                <g id="编组" transform="translate(0.000000, 1.000000)">
                    <g fill="#FDC200" fill-rule="nonzero" id="星">
                        <g>
                            <path d="M7.84488629,12.5815481 L4.49336608,14.3435465 C4.16746969,14.5148804 3.76438492,14.3895827 3.59305105,14.0636864 C3.524825,13.9339127 3.50128189,13.7852673 3.52606645,13.6407622 L4.16614985,9.90878963 C4.18469583,9.80065827 4.14884634,9.69032487 4.07028431,9.61374582 L1.3588475,6.97074815 C1.09519178,6.71374735 1.08979691,6.29167184 1.34679772,6.02801612 C1.44913679,5.92302703 1.58323173,5.85470224 1.72832309,5.83361924 L5.47543659,5.28913177 C5.58400665,5.27335562 5.67786184,5.20516583 5.72641585,5.10678467 L7.40217595,1.71132383 C7.56512414,1.38115473 7.9648747,1.24559539 8.29504381,1.40854359 C8.42651888,1.47343042 8.53293722,1.57984876 8.59782405,1.71132383 L10.2735842,5.10678467 C10.3221382,5.20516583 10.4159934,5.27335562 10.5245634,5.28913177 L14.2716769,5.83361924 C14.6360402,5.88656431 14.8884945,6.22485955 14.8355494,6.58922279 C14.8144664,6.73431414 14.7461416,6.86840908 14.6411525,6.97074815 L11.9297157,9.61374582 C11.8511537,9.69032487 11.8153042,9.80065827 11.8338501,9.90878963 L12.4739336,13.6407622 C12.5361742,14.0036532 12.292449,14.3482905 11.929558,14.4105311 C11.785053,14.4353157 11.6364076,14.4117726 11.5066339,14.3435465 L8.15511371,12.5815481 C8.0580057,12.5304954 7.9419943,12.5304954 7.84488629,12.5815481 Z"></path>
                        </g>
                    </g>
                    <g transform="translate(48.000000, 0.000000)" fill="#FDC200" fill-rule="nonzero" id="星">
                        <g>
                            <path d="M7.84488629,12.5815481 L4.49336608,14.3435465 C4.16746969,14.5148804 3.76438492,14.3895827 3.59305105,14.0636864 C3.524825,13.9339127 3.50128189,13.7852673 3.52606645,13.6407622 L4.16614985,9.90878963 C4.18469583,9.80065827 4.14884634,9.69032487 4.07028431,9.61374582 L1.3588475,6.97074815 C1.09519178,6.71374735 1.08979691,6.29167184 1.34679772,6.02801612 C1.44913679,5.92302703 1.58323173,5.85470224 1.72832309,5.83361924 L5.47543659,5.28913177 C5.58400665,5.27335562 5.67786184,5.20516583 5.72641585,5.10678467 L7.40217595,1.71132383 C7.56512414,1.38115473 7.9648747,1.24559539 8.29504381,1.40854359 C8.42651888,1.47343042 8.53293722,1.57984876 8.59782405,1.71132383 L10.2735842,5.10678467 C10.3221382,5.20516583 10.4159934,5.27335562 10.5245634,5.28913177 L14.2716769,5.83361924 C14.6360402,5.88656431 14.8884945,6.22485955 14.8355494,6.58922279 C14.8144664,6.73431414 14.7461416,6.86840908 14.6411525,6.97074815 L11.9297157,9.61374582 C11.8511537,9.69032487 11.8153042,9.80065827 11.8338501,9.90878963 L12.4739336,13.6407622 C12.5361742,14.0036532 12.292449,14.3482905 11.929558,14.4105311 C11.785053,14.4353157 11.6364076,14.4117726 11.5066339,14.3435465 L8.15511371,12.5815481 C8.0580057,12.5304954 7.9419943,12.5304954 7.84488629,12.5815481 Z"></path>
                        </g>
                    </g>
                    <g transform="translate(24.000000, 0.000000)" fill="#FDC200" fill-rule="nonzero" id="星">
                        <g>
                            <path d="M7.84488629,12.5815481 L4.49336608,14.3435465 C4.16746969,14.5148804 3.76438492,14.3895827 3.59305105,14.0636864 C3.524825,13.9339127 3.50128189,13.7852673 3.52606645,13.6407622 L4.16614985,9.90878963 C4.18469583,9.80065827 4.14884634,9.69032487 4.07028431,9.61374582 L1.3588475,6.97074815 C1.09519178,6.71374735 1.08979691,6.29167184 1.34679772,6.02801612 C1.44913679,5.92302703 1.58323173,5.85470224 1.72832309,5.83361924 L5.47543659,5.28913177 C5.58400665,5.27335562 5.67786184,5.20516583 5.72641585,5.10678467 L7.40217595,1.71132383 C7.56512414,1.38115473 7.9648747,1.24559539 8.29504381,1.40854359 C8.42651888,1.47343042 8.53293722,1.57984876 8.59782405,1.71132383 L10.2735842,5.10678467 C10.3221382,5.20516583 10.4159934,5.27335562 10.5245634,5.28913177 L14.2716769,5.83361924 C14.6360402,5.88656431 14.8884945,6.22485955 14.8355494,6.58922279 C14.8144664,6.73431414 14.7461416,6.86840908 14.6411525,6.97074815 L11.9297157,9.61374582 C11.8511537,9.69032487 11.8153042,9.80065827 11.8338501,9.90878963 L12.4739336,13.6407622 C12.5361742,14.0036532 12.292449,14.3482905 11.929558,14.4105311 C11.785053,14.4353157 11.6364076,14.4117726 11.5066339,14.3435465 L8.15511371,12.5815481 C8.0580057,12.5304954 7.9419943,12.5304954 7.84488629,12.5815481 Z"></path>
                        </g>
                    </g>
                    <g transform="translate(72.000000, 0.000000)" fill="#E5E5E5" id="星">
                        <path d="M7.84488629,12.5815481 L4.49336608,14.3435465 C4.16746969,14.5148804 3.76438492,14.3895827 3.59305105,14.0636864 C3.524825,13.9339127 3.50128189,13.7852673 3.52606645,13.6407622 L4.16614985,9.90878963 C4.18469583,9.80065827 4.14884634,9.69032487 4.07028431,9.61374582 L1.3588475,6.97074815 C1.09519178,6.71374735 1.08979691,6.29167184 1.34679772,6.02801612 C1.44913679,5.92302703 1.58323173,5.85470224 1.72832309,5.83361924 L5.47543659,5.28913177 C5.58400665,5.27335562 5.67786184,5.20516583 5.72641585,5.10678467 L7.40217595,1.71132383 C7.56512414,1.38115473 7.9648747,1.24559539 8.29504381,1.40854359 C8.42651888,1.47343042 8.53293722,1.57984876 8.59782405,1.71132383 L10.2735842,5.10678467 C10.3221382,5.20516583 10.4159934,5.27335562 10.5245634,5.28913177 L14.2716769,5.83361924 C14.6360402,5.88656431 14.8884945,6.22485955 14.8355494,6.58922279 C14.8144664,6.73431414 14.7461416,6.86840908 14.6411525,6.97074815 L11.9297157,9.61374582 C11.8511537,9.69032487 11.8153042,9.80065827 11.8338501,9.90878963 L12.4739336,13.6407622 C12.5361742,14.0036532 12.292449,14.3482905 11.929558,14.4105311 C11.785053,14.4353157 11.6364076,14.4117726 11.5066339,14.3435465 L8.15511371,12.5815481 C8.0580057,12.5304954 7.9419943,12.5304954 7.84488629,12.5815481 Z"></path>
                    </g>
                    <g transform="translate(96.000000, 0.000000)" fill="#E5E5E5" id="星">
                        <path d="M7.84488629,12.5815481 L4.49336608,14.3435465 C4.16746969,14.5148804 3.76438492,14.3895827 3.59305105,14.0636864 C3.524825,13.9339127 3.50128189,13.7852673 3.52606645,13.6407622 L4.16614985,9.90878963 C4.18469583,9.80065827 4.14884634,9.69032487 4.07028431,9.61374582 L1.3588475,6.97074815 C1.09519178,6.71374735 1.08979691,6.29167184 1.34679772,6.02801612 C1.44913679,5.92302703 1.58323173,5.85470224 1.72832309,5.83361924 L5.47543659,5.28913177 C5.58400665,5.27335562 5.67786184,5.20516583 5.72641585,5.10678467 L7.40217595,1.71132383 C7.56512414,1.38115473 7.9648747,1.24559539 8.29504381,1.40854359 C8.42651888,1.47343042 8.53293722,1.57984876 8.59782405,1.71132383 L10.2735842,5.10678467 C10.3221382,5.20516583 10.4159934,5.27335562 10.5245634,5.28913177 L14.2716769,5.83361924 C14.6360402,5.88656431 14.8884945,6.22485955 14.8355494,6.58922279 C14.8144664,6.73431414 14.7461416,6.86840908 14.6411525,6.97074815 L11.9297157,9.61374582 C11.8511537,9.69032487 11.8153042,9.80065827 11.8338501,9.90878963 L12.4739336,13.6407622 C12.5361742,14.0036532 12.292449,14.3482905 11.929558,14.4105311 C11.785053,14.4353157 11.6364076,14.4117726 11.5066339,14.3435465 L8.15511371,12.5815481 C8.0580057,12.5304954 7.9419943,12.5304954 7.84488629,12.5815481 Z"></path>
                    </g>
                </g>
            </g>
        </g>
    </g>
</svg>