<?xml version="1.0" encoding="UTF-8"?>
<svg width="201px" height="92px" viewBox="0 0 201 92" version="1.1" xmlns="http://www.w3.org/2000/svg" xmlns:xlink="http://www.w3.org/1999/xlink">
    <title>分割容器</title>
    <defs>
        <rect id="path-1" x="0" y="0" width="189" height="80" rx="4"></rect>
        <filter x="-5.2%" y="-10.9%" width="110.3%" height="124.4%" filterUnits="objectBoundingBox" id="filter-2">
            <feMorphology radius="0.25" operator="dilate" in="SourceAlpha" result="shadowSpreadOuter1"></feMorphology>
            <feOffset dx="0" dy="1" in="shadowSpreadOuter1" result="shadowOffsetOuter1"></feOffset>
            <feGaussianBlur stdDeviation="3" in="shadowOffsetOuter1" result="shadowBlurOuter1"></feGaussianBlur>
            <feComposite in="shadowBlurOuter1" in2="SourceAlpha" operator="out" result="shadowBlurOuter1"></feComposite>
            <feColorMatrix values="0 0 0 0 0   0 0 0 0 0   0 0 0 0 0  0 0 0 0.08 0" type="matrix" in="shadowBlurOuter1"></feColorMatrix>
        </filter>
    </defs>
    <g id="页面-1" stroke="none" stroke-width="1" fill="none" fill-rule="evenodd">
        <g id="PC组件概览备份-3" transform="translate(-646.000000, -2645.000000)">
            <g id="编组" transform="translate(652.000000, 2650.000000)">
                <g id="4.展示/5.折叠面板/展开" transform="translate(43.222222, 29.722222)"></g>
                <g id="矩形">
                    <use fill="black" fill-opacity="1" filter="url(#filter-2)" xlink:href="#path-1"></use>
                    <use stroke="#D4D9E3" stroke-width="0.5" fill="#FFFFFF" fill-rule="evenodd" xlink:href="#path-1"></use>
                </g>
                <line x1="94.5" y1="0" x2="94.5" y2="80" id="路径-6" stroke="#D4D9E3" stroke-width="0.5"></line>
                <g id="编组-47" transform="translate(87.000000, 39.000000)">
                    <g id="0.全局样式/1.图标/5.基础线性图标/4.业务类/折叠展开" fill="#666666" transform="translate(4.000000, 4.000000) rotate(90.000000) translate(-4.000000, -4.000000) ">
                        <path d="M4.48407281,4.98322845 C4.21698217,5.33901943 3.78379917,5.33882826 3.51685204,4.98322845 L2.13631435,3.14421656 C1.86922371,2.78842558 2.0056309,2.5 2.44923441,2.5 L5.55169044,2.5 C5.99160205,2.5 6.13155762,2.78861675 5.8646105,3.14421656 L4.48407281,4.98322845 Z" id="Path-Copy-2" transform="translate(4.000000, 3.875000) scale(-1, 1) rotate(-360.000000) translate(-4.000000, -3.875000) "></path>
                    </g>
                    <path d="M7,0 L4,0 C1.790861,0 0,1.790861 0,4 C0,6.209139 1.790861,8 4,8 L7,8" id="路径" stroke="#D4D9E3" stroke-width="0.5"></path>
                </g>
                <g id="编组-47" transform="translate(98.000000, 43.000000) scale(-1, 1) translate(-98.000000, -43.000000) translate(94.000000, 39.000000)">
                    <g id="0.全局样式/1.图标/5.基础线性图标/4.业务类/折叠展开" fill="#666666" transform="translate(4.000000, 4.000000) rotate(90.000000) translate(-4.000000, -4.000000) ">
                        <path d="M4.48407281,4.98322845 C4.21698217,5.33901943 3.78379917,5.33882826 3.51685204,4.98322845 L2.13631435,3.14421656 C1.86922371,2.78842558 2.0056309,2.5 2.44923441,2.5 L5.55169044,2.5 C5.99160205,2.5 6.13155762,2.78861675 5.8646105,3.14421656 L4.48407281,4.98322845 Z" id="Path-Copy-2" transform="translate(4.000000, 3.875000) scale(-1, 1) rotate(-360.000000) translate(-4.000000, -3.875000) "></path>
                    </g>
                    <path d="M7,0 L4,0 C1.790861,0 0,1.790861 0,4 C0,6.209139 1.790861,8 4,8 L7,8" id="路径" stroke="#D4D9E3" stroke-width="0.5"></path>
                </g>
            </g>
        </g>
    </g>
</svg>