<?xml version="1.0" encoding="UTF-8"?>
<svg width="188px" height="16px" viewBox="0 0 188 16" version="1.1" xmlns="http://www.w3.org/2000/svg" xmlns:xlink="http://www.w3.org/1999/xlink">
    <title>编组 77</title>
    <g id="前端总览" stroke="none" stroke-width="1" fill="none" fill-rule="evenodd">
        <g id="PC组件概览备份-3" transform="translate(-651.000000, -1666.000000)">
            <g id="编组-100" transform="translate(651.000000, 1666.000000)">
                <g id="编组-96">
                    <rect id="矩形备份-49" fill="#D4D9E3" x="20" y="2" width="32" height="12" rx="1"></rect>
                    <g id="3.录入/13.多选/多选/查看状态">
                        <path d="M4,2 L12,2 C13.1045695,2 14,2.8954305 14,4 L14,12 C14,13.1045695 13.1045695,14 12,14 L4,14 C2.8954305,14 2,13.1045695 2,12 L2,4 C2,2.8954305 2.8954305,2 4,2 Z" id="矩形" fill="#FFFFFF"></path>
                        <g id="0.全局样式/1.图标/4.基础面性图标/单选未选" fill="#276FF5">
                            <path d="M12.5,1.5 C13.6045695,1.5 14.5,2.3954305 14.5,3.5 L14.5,12.5 C14.5,13.6045695 13.6045695,14.5 12.5,14.5 L3.5,14.5 C2.3954305,14.5 1.5,13.6045695 1.5,12.5 L1.5,3.5 C1.5,2.3954305 2.3954305,1.5 3.5,1.5 L12.5,1.5 Z M11.3043255,5.13310687 C11.0713332,4.93243874 10.7226362,4.96201577 10.5254889,5.19916901 L10.5254889,5.19916901 L6.89768931,9.56262783 L5.47718521,7.82740256 L5.4388209,7.7850796 C5.23868197,7.58561952 4.9186723,7.56893252 4.69885859,7.75538196 C4.46439064,7.95426136 4.43271167,8.30895329 4.62810163,8.54760857 L4.62810163,8.54760857 L6.47020016,10.7976041 L6.50849183,10.8398886 C6.73446269,11.0654895 7.1071002,11.0528694 7.31661178,10.8008429 L7.31661178,10.8008429 L11.3692286,5.92585258 L11.4035483,5.88007263 C11.561947,5.64493636 11.5227558,5.32123324 11.3043255,5.13310687 Z" id="形状结合"></path>
                        </g>
                    </g>
                </g>
                <g id="编组-66" transform="translate(68.000000, 0.000000)">
                    <rect id="矩形备份-50" fill="#D4D9E3" x="20" y="2" width="32" height="12" rx="1"></rect>
                    <g id="3.录入/13.多选/多选/查看状态">
                        <path d="M4,2 L12,2 C13.1045695,2 14,2.8954305 14,4 L14,12 C14,13.1045695 13.1045695,14 12,14 L4,14 C2.8954305,14 2,13.1045695 2,12 L2,4 C2,2.8954305 2.8954305,2 4,2 Z" id="矩形" fill="#FFFFFF"></path>
                        <g id="0.全局样式/1.图标/4.基础面性图标/单选未选" fill="#276FF5">
                            <path d="M12.5,1.5 C13.6045695,1.5 14.5,2.3954305 14.5,3.5 L14.5,12.5 C14.5,13.6045695 13.6045695,14.5 12.5,14.5 L3.5,14.5 C2.3954305,14.5 1.5,13.6045695 1.5,12.5 L1.5,3.5 C1.5,2.3954305 2.3954305,1.5 3.5,1.5 L12.5,1.5 Z M11.3043255,5.13310687 C11.0713332,4.93243874 10.7226362,4.96201577 10.5254889,5.19916901 L10.5254889,5.19916901 L6.89768931,9.56262783 L5.47718521,7.82740256 L5.4388209,7.7850796 C5.23868197,7.58561952 4.9186723,7.56893252 4.69885859,7.75538196 C4.46439064,7.95426136 4.43271167,8.30895329 4.62810163,8.54760857 L4.62810163,8.54760857 L6.47020016,10.7976041 L6.50849183,10.8398886 C6.73446269,11.0654895 7.1071002,11.0528694 7.31661178,10.8008429 L7.31661178,10.8008429 L11.3692286,5.92585258 L11.4035483,5.88007263 C11.561947,5.64493636 11.5227558,5.32123324 11.3043255,5.13310687 Z" id="形状结合"></path>
                        </g>
                    </g>
                </g>
                <g id="编组-66备份" transform="translate(136.000000, 0.000000)">
                    <rect id="矩形备份-50" fill="#D4D9E3" x="20" y="2" width="32" height="12" rx="1"></rect>
                    <g id="3.录入/13.多选/多选/查看状态">
                        <path d="M4,2 L12,2 C13.1045695,2 14,2.8954305 14,4 L14,12 C14,13.1045695 13.1045695,14 12,14 L4,14 C2.8954305,14 2,13.1045695 2,12 L2,4 C2,2.8954305 2.8954305,2 4,2 Z" id="矩形" fill="#FFFFFF"></path>
                        <g id="0.全局样式/1.图标/4.基础面性图标/单选未选" fill="#BDC6D8">
                            <path d="M12.5,1.5 C13.6045695,1.5 14.5,2.3954305 14.5,3.5 L14.5,12.5 C14.5,13.6045695 13.6045695,14.5 12.5,14.5 L3.5,14.5 C2.3954305,14.5 1.5,13.6045695 1.5,12.5 L1.5,3.5 C1.5,2.3954305 2.3954305,1.5 3.5,1.5 L12.5,1.5 Z M12.5,2.5 L3.5,2.5 C2.9728191,2.5 2.54091744,2.9079389 2.50274287,3.42536883 L2.5,3.5 L2.5,12.5 C2.5,13.0271809 2.9079389,13.4590826 3.42536883,13.4972571 L3.5,13.5 L12.5,13.5 C13.0271809,13.5 13.4590826,13.0920611 13.4972571,12.5746312 L13.5,12.5 L13.5,3.5 C13.5,2.9728191 13.0920611,2.54091744 12.5746312,2.50274287 L12.5,2.5 Z" id="矩形"></path>
                        </g>
                    </g>
                </g>
            </g>
        </g>
    </g>
</svg>