<?xml version="1.0" encoding="UTF-8"?>
<svg width="60px" height="20px" viewBox="0 0 60 20" version="1.1" xmlns="http://www.w3.org/2000/svg" xmlns:xlink="http://www.w3.org/1999/xlink">
    <title>编组 7</title>
    <defs>
        <filter id="filter-1">
            <feColorMatrix in="SourceGraphic" type="matrix" values="0 0 0 0 0.152941 0 0 0 0 0.435294 0 0 0 0 0.960784 0 0 0 1.000000 0"></feColorMatrix>
        </filter>
    </defs>
    <g id="页面-1" stroke="none" stroke-width="1" fill="none" fill-rule="evenodd">
        <g id="PC组件概览备份-3" transform="translate(-974.000000, -362.000000)">
            <g id="编组-7" transform="translate(974.000000, 362.000000)">
                <g id="文本链接" transform="translate(24.678000, 1.186000)" fill="#276FF5" fill-rule="nonzero">
                    <path d="M9.306,10.26 L9.306,11.412 L12.672,11.412 L12.672,14.4 L13.878,14.4 L13.878,11.412 L16.488,11.412 L16.488,10.26 L13.878,10.26 L13.878,8.046 L15.984,8.046 L15.984,6.912 L13.878,6.912 L13.878,4.482 L12.672,4.482 L12.672,6.912 L10.818,6.912 C11.376,5.868 11.88,4.644 12.348,3.276 L16.146,3.276 L16.146,2.142 L12.708,2.142 C12.87,1.584 13.032,0.99 13.176,0.378 L12.024,0.108 C11.844,0.81 11.664,1.494 11.484,2.142 L9.342,2.142 L9.342,3.276 L11.142,3.276 C10.638,4.752 10.08,5.976 9.468,6.966 L9.72,8.046 L12.672,8.046 L12.672,10.26 L9.306,10.26 Z M6.786,0.486 L5.832,1.08 C6.624,2.142 7.254,3.114 7.722,4.014 L8.694,3.33 C8.262,2.52 7.614,1.566 6.786,0.486 Z M13.914,15.12 C13.23,15.12 12.546,15.102 11.862,15.084 C11.16,15.048 10.548,14.922 10.044,14.724 C9.486,14.454 9.018,14.094 8.658,13.626 C8.604,13.554 8.532,13.5 8.46,13.428 L8.46,6.156 L5.814,6.156 L5.814,7.308 L7.272,7.308 L7.272,13.374 C6.768,13.68 6.138,14.418 5.382,15.606 L6.156,16.578 C6.948,15.156 7.506,14.454 7.812,14.454 C7.974,14.454 8.172,14.58 8.406,14.85 C8.838,15.354 9.36,15.732 9.99,15.948 C10.62,16.146 11.358,16.254 12.186,16.272 C12.726,16.29 13.284,16.308 13.824,16.308 L16.254,16.308 L16.596,15.084 C15.75,15.102 14.85,15.12 13.914,15.12 Z M1.962,0.162 C1.566,2.34 0.9,4.338 0,6.138 L1.026,6.786 C1.548,5.778 2.016,4.644 2.412,3.402 L5.508,3.402 L5.508,2.178 L2.79,2.178 C2.934,1.602 3.078,1.026 3.204,0.414 L1.962,0.162 Z M1.566,5.76 L1.566,6.93 L2.484,6.93 L2.484,9.18 L0.486,9.18 L0.486,10.386 L2.484,10.386 L2.484,14.544 C2.484,14.796 2.34,14.994 2.07,15.12 L2.556,16.2 C3.672,15.804 4.644,15.282 5.508,14.67 L5.292,13.554 C4.752,13.986 4.23,14.328 3.726,14.58 L3.726,10.386 L5.706,10.386 L5.706,9.18 L3.726,9.18 L3.726,6.93 L5.202,6.93 L5.202,5.76 L1.566,5.76 Z" id="形状"></path>
                    <path d="M26.838,3.15 L25.776,3.654 C26.154,4.302 26.514,5.022 26.874,5.814 L24.12,5.814 L24.12,7.056 L34.164,7.056 L34.164,5.814 L31.248,5.814 C31.662,5.094 32.04,4.284 32.382,3.384 L31.158,2.952 C30.798,3.96 30.384,4.914 29.88,5.814 L28.116,5.814 C27.72,4.842 27.306,3.96 26.838,3.15 Z M29.214,0 L27.864,0.216 C28.08,0.666 28.296,1.17 28.494,1.71 L24.534,1.71 L24.534,2.898 L33.84,2.898 L33.84,1.71 L29.808,1.71 C29.61,1.08 29.412,0.504 29.214,0 Z M20.232,16.452 C21.294,16.452 21.834,15.93 21.834,14.886 L21.834,9.558 C22.338,9.324 22.842,9.072 23.346,8.802 L23.346,7.488 C22.842,7.758 22.338,8.01 21.834,8.262 L21.834,4.806 L23.328,4.806 L23.328,3.564 L21.834,3.564 L21.834,0.162 L20.502,0.162 L20.502,3.564 L18.306,3.564 L18.306,4.806 L20.502,4.806 L20.502,8.82 C19.674,9.144 18.828,9.414 17.982,9.63 L18.306,10.926 C19.044,10.692 19.782,10.422 20.502,10.134 L20.502,14.562 C20.502,15.03 20.25,15.264 19.782,15.264 C19.35,15.264 18.882,15.228 18.396,15.192 L18.666,16.452 L20.232,16.452 Z M27.63,7.56 C27.432,8.064 27.216,8.568 26.964,9.108 L23.886,9.108 L23.886,10.368 L26.298,10.368 C25.92,11.052 25.488,11.754 25.002,12.492 C26.262,12.996 27.432,13.482 28.53,13.986 C27.414,14.634 25.794,15.138 23.706,15.516 L24.21,16.686 C26.802,16.182 28.692,15.48 29.88,14.616 C31.32,15.3 32.562,15.966 33.642,16.632 L34.344,15.588 C33.21,14.94 32.022,14.328 30.798,13.752 C31.644,12.834 32.202,11.7 32.472,10.368 L34.452,10.368 L34.452,9.108 L28.278,9.108 C28.494,8.658 28.692,8.19 28.872,7.704 L27.63,7.56 Z M31.248,10.368 C30.96,11.52 30.42,12.456 29.61,13.212 C28.638,12.78 27.63,12.366 26.586,11.97 C26.946,11.466 27.288,10.926 27.612,10.368 L31.248,10.368 Z" id="形状"></path>
                </g>
                <g id="0.全局样式/1.图标/5.基础线性图标/2.通用类/超链接" filter="url(#filter-1)">
                    <g>
                        <path d="M4.41987298,9.66506351 L5.50240474,10.2900635 L4.87740474,11.3725953 C3.84187083,13.1661926 4.45640266,15.4596566 6.25,16.4951905 C8.00283376,17.5071896 10.2330712,16.9432736 11.300062,15.2430534 L11.3725953,15.1225953 L11.9975953,14.0400635 L13.080127,14.6650635 L12.455127,15.7475953 C11.0744151,18.1390584 8.01646312,18.9584342 5.625,17.5777223 C3.23353688,16.1970104 2.41416111,13.1390584 3.79487298,10.7475953 L4.41987298,9.66506351 Z M11.875,6.75240474 C12.1739329,6.92499372 12.2763549,7.30723772 12.1037659,7.60617061 L8.97876588,13.0188294 C8.80617689,13.3177623 8.42393289,13.4201842 8.125,13.2475953 C7.82606711,13.0750063 7.72364514,12.6927623 7.89623412,12.3938294 L11.0212341,6.98117061 C11.1938231,6.68223772 11.5760671,6.57981575 11.875,6.75240474 Z M14.375,2.42227772 C16.7664631,3.80298959 17.5858389,6.86094162 16.205127,9.25240474 L15.580127,10.3349365 L14.4975953,9.70993649 L15.1225953,8.62740474 C16.1581292,6.8338074 15.5435973,4.54034338 13.75,3.50480947 C11.9971662,2.49281043 9.76692881,3.05672644 8.69993796,4.7569466 L8.62740474,4.87740474 L8.00240474,5.95993649 L6.91987298,5.33493649 L7.54487298,4.25240474 C8.92558486,1.86094162 11.9835369,1.04156584 14.375,2.42227772 Z" id="形状结合" fill="#666666"></path>
                    </g>
                </g>
            </g>
        </g>
    </g>
</svg>