<?xml version="1.0" encoding="UTF-8"?>
<svg width="108px" height="65px" viewBox="0 0 108 65" version="1.1" xmlns="http://www.w3.org/2000/svg" xmlns:xlink="http://www.w3.org/1999/xlink">
    <title>切片</title>
    <g id="前端总览" stroke="none" stroke-width="1" fill="none" fill-rule="evenodd">
        <g id="PC组件概览备份-3" transform="translate(-688.000000, -839.000000)">
            <g id="编组-115" transform="translate(688.000000, 839.000000)">
                <g id="路径-2" stroke="#D4D9E3">
                    <line x1="0" y1="0.5" x2="108" y2="0.5"></line>
                    <line x1="0" y1="64.5" x2="108" y2="64.5"></line>
                </g>
                <path id="路径-7" d="M48.5,60 C47.9477153,60 47.5,59.5522847 47.5,59 C47.5,58.4871642 47.8860402,58.0644928 48.3833789,58.0067277 L48.5,58 L53.5,58 L53.5,8 L48.5,8 C47.9477153,8 47.5,7.55228475 47.5,7 C47.5,6.48716416 47.8860402,6.06449284 48.3833789,6.00672773 L48.5,6 L60.5,6 C61.0522847,6 61.5,6.44771525 61.5,7 C61.5,7.51283584 61.1139598,7.93550716 60.6166211,7.99327227 L60.5,8 L55.5,8 L55.5,58 L60.5,58 C61.0522847,58 61.5,58.4477153 61.5,59 C61.5,59.5128358 61.1139598,59.9355072 60.6166211,59.9932723 L60.5,60 L48.5,60 Z" fill="#BDC6D8" fill-rule="nonzero"></path>
            </g>
        </g>
    </g>
</svg>