<?xml version="1.0" encoding="UTF-8"?>
<svg width="147px" height="20px" viewBox="0 0 147 20" version="1.1" xmlns="http://www.w3.org/2000/svg" xmlns:xlink="http://www.w3.org/1999/xlink">
    <title>编组 73</title>
    <g id="前端总览" stroke="none" stroke-width="1" fill="none" fill-rule="evenodd">
        <g id="PC组件概览备份-3" transform="translate(-417.000000, -2476.000000)">
            <g id="编组-73" transform="translate(417.000000, 2476.000000)">
                <g id="编组-92">
                    <g id="0.全局样式/1.图标/5.基础线性图标/2.通用类/附件" transform="translate(0.000000, 2.003151)" fill="#BDC6D8">
                        <path d="M12.613961,2.02512627 C13.9523203,3.36348556 13.9802028,5.51607075 12.6976085,6.88835612 L12.613961,6.97487373 L7.84099026,11.7478445 C6.9623106,12.6265242 5.5376894,12.6265242 4.65900974,11.7478445 C3.80543522,10.89427 3.78104738,9.52550491 4.58584621,8.64249092 L4.65900974,8.56586399 L9.07842712,4.14644661 C9.27368927,3.95118446 9.59027176,3.95118446 9.78553391,4.14644661 C9.96684876,4.32776146 9.97979982,4.61368416 9.82438709,4.80994298 L9.78553391,4.85355339 L5.36611652,9.27297077 C4.87796116,9.76112614 4.87796116,10.5525824 5.36611652,11.0407377 C5.83474567,11.5093669 6.5828969,11.528112 7.07388781,11.0969732 L7.13388348,11.0407377 L11.9068542,6.26776695 C12.883165,5.29145622 12.883165,3.70854378 11.9068542,2.73223305 C10.9562359,1.78161471 9.43052217,1.75659843 8.44963565,2.65718423 L8.37132034,2.73223305 L3.59834957,7.50520382 C2.13388348,8.96966991 2.13388348,11.3440386 3.59834957,12.8085047 C5.03410064,14.2442558 7.34442167,14.2724077 8.8144696,12.8929606 L8.90165043,12.8085047 L13.3210678,8.3890873 C13.51633,8.19382515 13.8329124,8.19382515 14.0281746,8.3890873 C14.2094894,8.57040215 14.2224405,8.85632484 14.0670278,9.05258367 L14.0281746,9.09619408 L9.60875721,13.5156115 C7.75376682,15.3706018 4.74623318,15.3706018 2.89124279,13.5156115 C1.068235,11.6926037 1.03680383,8.75645287 2.79694928,6.89506084 L2.89124279,6.79809704 L7.66421356,2.02512627 C9.03104858,0.658291245 11.247126,0.658291245 12.613961,2.02512627 Z" id="路径"></path>
                    </g>
                    <text id=".ppt" font-family="PingFangSC-Regular, PingFang SC" font-size="14" font-weight="normal" fill="#212121">
                        <tspan x="70.426" y="15">.ppt</tspan>
                    </text>
                    <text id="(10.3M)" font-family="PingFangSC-Regular, PingFang SC" font-size="14" font-weight="normal" fill="#CCCCCC">
                        <tspan x="98.5" y="15">(10.3M)</tspan>
                    </text>
                </g>
                <rect id="矩形备份-83" fill="#D4D9E3" x="17" y="3" width="52" height="14" rx="1"></rect>
            </g>
        </g>
    </g>
</svg>