<?xml version="1.0" encoding="UTF-8"?>
<svg width="174px" height="65px" viewBox="0 0 174 65" version="1.1" xmlns="http://www.w3.org/2000/svg" xmlns:xlink="http://www.w3.org/1999/xlink">
    <title>切片</title>
    <g id="前端总览" stroke="none" stroke-width="1" fill="none" fill-rule="evenodd">
        <g id="PC组件概览备份-3" transform="translate(-134.000000, -540.000000)">
            <g id="编组-12" transform="translate(134.000000, 540.000000)">
                <g id="编组-115" stroke="#D4D9E3">
                    <line x1="0" y1="0.5" x2="174" y2="0.5" id="路径-2"></line>
                    <line x1="0" y1="64.5" x2="174" y2="64.5" id="路径-2"></line>
                </g>
                <g id="编组-7" transform="translate(24.000000, 16.000000)" fill="#8797B8" fill-rule="nonzero">
                    <polygon id="T" points="13.6171875 33.609375 13.6171875 3.5625 23.3203125 3.5625 23.3203125 0 0 0 0 3.5625 9.6796875 3.5625 9.6796875 33.609375"></polygon>
                    <polygon id="T备份" opacity="0.7" points="45.8308653 34 45.8308653 10.7559275 53.3203125 10.7559275 53.3203125 8 35.3203125 8 35.3203125 10.7559275 42.7916693 10.7559275 42.7916693 34"></polygon>
                    <polygon id="T备份-2" opacity="0.5" points="74.0791065 34 74.0791065 14.3319386 80.3203125 14.3319386 80.3203125 12 65.3203125 12 65.3203125 14.3319386 71.5464432 14.3319386 71.5464432 34"></polygon>
                    <polygon id="T备份-3" opacity="0.3" points="99.3273477 34 99.3273477 17.9079498 104.320312 17.9079498 104.320312 16 92.3203125 16 92.3203125 17.9079498 97.301217 17.9079498 97.301217 34"></polygon>
                    <polygon id="T备份-4" opacity="0.2" points="121.575589 34 121.575589 21.4839609 125.320312 21.4839609 125.320312 20 116.320312 20 116.320312 21.4839609 120.055991 21.4839609 120.055991 34"></polygon>
                </g>
            </g>
        </g>
    </g>
</svg>