<?xml version="1.0" encoding="UTF-8"?>
<svg width="216px" height="132px" viewBox="0 0 216 132" version="1.1" xmlns="http://www.w3.org/2000/svg" xmlns:xlink="http://www.w3.org/1999/xlink">
    <title>编组 4</title>
    <defs>
        <filter x="-6.9%" y="-12.1%" width="113.8%" height="124.1%" filterUnits="objectBoundingBox" id="filter-1">
            <feOffset dx="0" dy="1" in="SourceAlpha" result="shadowOffsetOuter1"></feOffset>
            <feGaussianBlur stdDeviation="3" in="shadowOffsetOuter1" result="shadowBlurOuter1"></feGaussianBlur>
            <feColorMatrix values="0 0 0 0 0   0 0 0 0 0   0 0 0 0 0  0 0 0 0.08 0" type="matrix" in="shadowBlurOuter1" result="shadowMatrixOuter1"></feColorMatrix>
            <feMerge>
                <feMergeNode in="shadowMatrixOuter1"></feMergeNode>
                <feMergeNode in="SourceGraphic"></feMergeNode>
            </feMerge>
        </filter>
    </defs>
    <g id="前端总览" stroke="none" stroke-width="1" fill="none" fill-rule="evenodd">
        <g id="PC组件概览备份-3" transform="translate(-637.000000, -1105.000000)">
            <g id="编组-35备份" transform="translate(637.000000, 1105.000000)">
                <g id="编组-4" filter="url(#filter-1)" transform="translate(10.000000, 10.000000)">
                    <rect id="矩形" fill="#EDF1F7" x="0" y="0" width="196" height="112"></rect>
                    <path d="M0,12 L27,12 L27,112 L4,112 C1.790861,112 2.705415e-16,110.209139 0,108 L0,12 L0,12 Z" id="矩形" fill="#BDC6D8"></path>
                    <rect id="矩形备份-121" fill="#8797B8" x="27" y="25" width="27" height="37"></rect>
                    <path d="M4,0 L192,0 C194.209139,-4.05812251e-16 196,1.790861 196,4 L196,12 L196,12 L0,12 L0,4 C-1.15871992e-15,1.790861 1.790861,4.05812251e-16 4,0 Z" id="矩形" fill="#F8FBFF"></path>
                    <rect id="矩形" fill="#8797B8" x="0" y="25" width="27" height="12"></rect>
                    <text id="||||||||||||||||备份-2" font-family="PingFangSC-Regular, PingFang SC" font-size="4" font-weight="normal" line-spacing="8" fill="#FFFFFF">
                        <tspan x="7.26" y="44">||||||||||||||||</tspan>
                    </text>
                    <rect id="矩形备份-28" fill="#FFFFFF" x="6" y="28" width="14" height="5" rx="1"></rect>
                    <rect id="矩形备份-122" fill="#FFFFFF" x="34" y="28" width="14" height="5" rx="1"></rect>
                    <rect id="矩形备份-36" fill="#FFFFFF" x="6" y="16" width="14" height="5" rx="1"></rect>
                    <rect id="矩形备份-29" fill="#FFFFFF" x="6" y="41" width="14" height="5" rx="1"></rect>
                    <rect id="矩形备份-123" fill="#FFFFFF" x="34" y="41" width="14" height="5" rx="1"></rect>
                    <rect id="矩形备份-30" fill="#FFFFFF" x="6" y="54" width="14" height="5" rx="1"></rect>
                    <rect id="矩形备份-124" fill="#FFFFFF" x="34" y="54" width="14" height="5" rx="1"></rect>
                    <rect id="矩形备份-31" fill="#FFFFFF" x="6" y="67" width="14" height="5" rx="1"></rect>
                    <rect id="矩形备份-32" fill="#FFFFFF" x="6" y="80" width="14" height="5" rx="1"></rect>
                    <rect id="矩形备份-33" fill="#D4D9E3" x="31" y="3" width="14" height="5" rx="1"></rect>
                    <rect id="矩形备份-34" fill="#D4D9E3" x="53" y="3" width="14" height="5" rx="1"></rect>
                    <rect id="矩形备份-35" fill="#D4D9E3" x="75" y="3" width="14" height="5" rx="1"></rect>
                    <rect id="矩形" fill="#276FF5" x="96" y="0" width="18" height="12"></rect>
                    <rect id="矩形备份-27" fill="#FFFFFF" x="98" y="3" width="14" height="5" rx="1"></rect>
                </g>
            </g>
        </g>
    </g>
</svg>