<?xml version="1.0" encoding="UTF-8"?>
<svg width="204px" height="69px" viewBox="0 0 204 69" version="1.1" xmlns="http://www.w3.org/2000/svg" xmlns:xlink="http://www.w3.org/1999/xlink">
    <title>åˆ‡ç‰‡</title>
    <defs>
        <linearGradient x1="0%" y1="50%" x2="100%" y2="50%" id="linearGradient-1">
            <stop stop-color="#FFFFFF" stop-opacity="0" offset="0%"></stop>
            <stop stop-color="#FFFFFF" stop-opacity="0.25" offset="100%"></stop>
        </linearGradient>
    </defs>
    <g id="å‰ç«¯æ€»è§ˆ" stroke="none" stroke-width="1" fill="none" fill-rule="evenodd">
        <g id="PCç»„ä»¶æ¦‚è§ˆå¤‡ä»½-3" transform="translate(-643.000000, -3455.000000)">
            <g id="ç¼–ç»„-45å¤‡ä»½" transform="translate(643.000000, 3455.648000)">
                <g id="5.å±•ç¤º/10.è¿›åº¦æ¡/2.è¿›è¡Œä¸­å¤‡ä»½">
                    <rect id="è¿›åº¦æ¡åº•è‰²" fill-opacity="0.08" fill="#000000" x="7.2" y="3.6" width="168.6" height="4.8" rx="2.4"></rect>
                    <rect id="â†³ðŸŽ¨è¿›åº¦æ¡" fill="#276FF5" fill-rule="nonzero" x="7.2" y="3.6" width="129.573554" height="4.8" rx="2.4"></rect>
                    <rect id="åŠ è½½åŠ¨ç”»" fill="url(#linearGradient-1)" fill-rule="nonzero" x="7.2" y="3.6" width="100.839669" height="4.8" rx="2.4"></rect>
                    <text id="â†³-ðŸ“-è¿›åº¦å†…å®¹" font-family="PingFangSC-Regular, PingFang SC" font-size="7.2" font-weight="normal" line-spacing="9.6" fill="#212121">
                        <tspan x="180.4392" y="9.25">75%</tspan>
                    </text>
                </g>
                <g id="5.å±•ç¤º/10.è¿›åº¦æ¡/2.è¿›è¡Œä¸­å¤‡ä»½-2" transform="translate(0.000000, 56.000000)">
                    <rect id="è¿›åº¦æ¡åº•è‰²" fill-opacity="0.08" fill="#000000" x="7.2" y="3.6" width="175.2" height="4.8" rx="2.4"></rect>
                    <rect id="â†³ðŸŽ¨è¿›åº¦æ¡" fill="#FB2323" fill-rule="nonzero" x="7.2" y="3.6" width="82.9487603" height="4.8" rx="2.4"></rect>
                    <g id="0.-å…¨å±€æ ·å¼/1.å›¾æ ‡/3.å…¶å®ƒå›¾æ ‡/çŠ¶æ€å›¾æ ‡/é”™è¯¯" transform="translate(187.200000, 1.200000)">
                        <path d="M4.8,0.6 C7.11959595,0.6 9,2.48040405 9,4.8 C9,7.11959595 7.11959595,9 4.8,9 C2.48040405,9 0.6,7.11959595 0.6,4.8 C0.6,2.48040405 2.48040405,0.6 4.8,0.6 Z" id="â†³ðŸŽ¨é¢œè‰²" fill="#FB2323" fill-rule="nonzero"></path>
                        <path d="M6.19799538,3.19799538 L6.40200462,3.40200462 C6.4292509,3.4292509 6.43141793,3.47271029 6.40701726,3.50253187 L5.3454,4.8 L6.40701726,6.09746813 C6.43141793,6.12728971 6.4292509,6.1707491 6.40200462,6.19799538 L6.19799538,6.40200462 C6.1707491,6.4292509 6.12728971,6.43141793 6.09746813,6.40701726 L4.8,5.3454 L3.50253187,6.40701726 C3.47271029,6.43141793 3.4292509,6.4292509 3.40200462,6.40200462 L3.19799538,6.19799538 C3.1707491,6.1707491 3.16858207,6.12728971 3.19298274,6.09746813 L4.2546,4.8 L3.19298274,3.50253187 C3.16858207,3.47271029 3.1707491,3.4292509 3.19799538,3.40200462 L3.40200462,3.19799538 C3.4292509,3.1707491 3.47271029,3.16858207 3.50253187,3.19298274 L4.8,4.2546 L6.09746813,3.19298274 C6.12728971,3.16858207 6.1707491,3.1707491 6.19799538,3.19799538 Z" id="å‰æ™¯" fill="#FFFFFF"></path>
                    </g>
                </g>
                <g id="5.å±•ç¤º/10.è¿›åº¦æ¡/2.è¿›è¡Œä¸­å¤‡ä»½-3" transform="translate(0.000000, 28.000000)">
                    <rect id="è¿›åº¦æ¡åº•è‰²" fill-opacity="0.08" fill="#000000" x="7.2" y="3.6" width="175.2" height="4.8" rx="2.4"></rect>
                    <rect id="â†³ðŸŽ¨è¿›åº¦æ¡" fill="#1BA854" fill-rule="nonzero" x="7.2" y="3.6" width="82.9487603" height="4.8" rx="2.4"></rect>
                    <g id="0.-å…¨å±€æ ·å¼/1.å›¾æ ‡/3.å…¶å®ƒå›¾æ ‡/çŠ¶æ€å›¾æ ‡/é”™è¯¯" transform="translate(187.200000, 1.200000)">
                        <path d="M4.8,0.6 C7.11959595,0.6 9,2.48040405 9,4.8 C9,7.11959595 7.11959595,9 4.8,9 C2.48040405,9 0.6,7.11959595 0.6,4.8 C0.6,2.48040405 2.48040405,0.6 4.8,0.6 Z" id="â†³ðŸŽ¨é¢œè‰²" fill="#1BA854" fill-rule="nonzero"></path>
                        <path d="M6.64843052,3.19843052 L6.84824471,3.39824471 C6.87703026,3.42703026 6.87759716,3.47352299 6.84952204,3.50300185 L3.9646861,6.5320796 C3.93611965,6.56207437 3.88864639,6.56323226 3.85865162,6.5346658 L3.85295914,6.52860826 L3.85295914,6.52860826 L2.7341059,4.85115886 C2.71427477,4.82141216 2.71819684,4.78180316 2.74347667,4.75652333 L2.94696699,4.55303301 C2.97625631,4.52374369 3.02374369,4.52374369 3.05303301,4.55303301 L3.9,5.4 L6.54738368,3.19384693 C6.57718317,3.16901403 6.62100168,3.17100168 6.64843052,3.19843052 Z" id="è·¯å¾„" fill="#FFFFFF"></path>
                    </g>
                </g>
            </g>
        </g>
    </g>
</svg>