<?xml version="1.0" encoding="UTF-8"?>
<svg width="88px" height="88px" viewBox="0 0 88 88" version="1.1" xmlns="http://www.w3.org/2000/svg" xmlns:xlink="http://www.w3.org/1999/xlink">
    <title>二维码@3x</title>
    <g id="xx" stroke="none" stroke-width="1" fill="none" fill-rule="evenodd">
        <g id="可视化组件缩略图" transform="translate(-177, -326)">
            <g id="二维码" transform="translate(177, 326)">
                <rect id="矩形" stroke-opacity="0.8" stroke="#D4D9E3" fill="#FFFFFF" x="0.5" y="0.5" width="87" height="87" rx="2"></rect>
                <path d="M63.9569892,46.0967742 L63.9569892,56.9354839 L69.9784946,56.9354839 L69.9784946,46.0967742 L74,46.0967742 C75.1045695,46.0967742 76,46.9922047 76,48.0967742 L76,62.9569892 L57.9354839,62.9569892 L57.9354839,58.1397849 L51.9139785,58.1397849 L51.9139785,75 L49.0967742,75 C47.9922047,75 47.0967742,74.1045695 47.0967742,73 L47.0967742,48.0967742 C47.0967742,46.9922047 47.9922047,46.0967742 49.0967742,46.0967742 L63.9569892,46.0967742 Z M63.9569892,68.9784946 L63.9569892,75 L57.9354839,75 L57.9354839,68.9784946 L63.9569892,68.9784946 Z M38.0740741,46.5555556 C39.3831935,46.5555556 40.4444444,47.6168065 40.4444444,48.9259259 L40.4444444,72.6296296 C40.4444444,73.938749 39.3831935,75 38.0740741,75 L14.3703704,75 C13.061251,75 12,73.938749 12,72.6296296 L12,48.9259259 C12,47.6168065 13.061251,46.5555556 14.3703704,46.5555556 L38.0740741,46.5555556 Z M76,68.9784946 L76,73 C76,74.1045695 75.1045695,75 74,75 L69.9784946,75 L69.9784946,68.9784946 L76,68.9784946 Z M35.7037037,51.2962963 L16.7407407,51.2962963 L16.7407407,70.2592593 L35.7037037,70.2592593 L35.7037037,51.2962963 Z M26.2222222,57.2222222 C28.1859013,57.2222222 29.7777778,58.8140987 29.7777778,60.7777778 C29.7777778,62.7414569 28.1859013,64.3333333 26.2222222,64.3333333 C24.2585431,64.3333333 22.6666667,62.7414569 22.6666667,60.7777778 C22.6666667,58.8140987 24.2585431,57.2222222 26.2222222,57.2222222 Z M38.0740741,11 C39.3831935,11 40.4444444,12.061251 40.4444444,13.3703704 L40.4444444,37.0740741 C40.4444444,38.3831935 39.3831935,39.4444444 38.0740741,39.4444444 L14.3703704,39.4444444 C13.061251,39.4444444 12,38.3831935 12,37.0740741 L12,13.3703704 C12,12.061251 13.061251,11 14.3703704,11 L38.0740741,11 Z M73.6296296,11 C74.938749,11 76,12.061251 76,13.3703704 L76,37.0740741 C76,38.3831935 74.938749,39.4444444 73.6296296,39.4444444 L49.9259259,39.4444444 C48.6168065,39.4444444 47.5555556,38.3831935 47.5555556,37.0740741 L47.5555556,13.3703704 C47.5555556,12.061251 48.6168065,11 49.9259259,11 L73.6296296,11 Z M35.7037037,15.7407407 L16.7407407,15.7407407 L16.7407407,34.7037037 L35.7037037,34.7037037 L35.7037037,15.7407407 Z M71.2592593,15.7407407 L52.2962963,15.7407407 L52.2962963,34.7037037 L71.2592593,34.7037037 L71.2592593,15.7407407 Z M26.2222222,21.6666667 C28.1859013,21.6666667 29.7777778,23.2585431 29.7777778,25.2222222 C29.7777778,27.1859013 28.1859013,28.7777778 26.2222222,28.7777778 C24.2585431,28.7777778 22.6666667,27.1859013 22.6666667,25.2222222 C22.6666667,23.2585431 24.2585431,21.6666667 26.2222222,21.6666667 Z M61.7777778,21.6666667 C63.7414569,21.6666667 65.3333333,23.2585431 65.3333333,25.2222222 C65.3333333,27.1859013 63.7414569,28.7777778 61.7777778,28.7777778 C59.8140987,28.7777778 58.2222222,27.1859013 58.2222222,25.2222222 C58.2222222,23.2585431 59.8140987,21.6666667 61.7777778,21.6666667 Z" id="形状结合" fill="#D4D9E3" fill-rule="nonzero"></path>
            </g>
        </g>
    </g>
</svg>