<?xml version="1.0" encoding="UTF-8"?>
<svg width="198px" height="113px" viewBox="0 0 198 113" version="1.1" xmlns="http://www.w3.org/2000/svg" xmlns:xlink="http://www.w3.org/1999/xlink">
    <title>编组 70</title>
    <defs>
        <rect id="path-1" x="0" y="0" width="76" height="93"></rect>
        <filter x="-12.5%" y="-9.1%" width="125.0%" height="120.4%" filterUnits="objectBoundingBox" id="filter-2">
            <feOffset dx="0" dy="1" in="SourceAlpha" result="shadowOffsetOuter1"></feOffset>
            <feGaussianBlur stdDeviation="3" in="shadowOffsetOuter1" result="shadowBlurOuter1"></feGaussianBlur>
            <feComposite in="shadowBlurOuter1" in2="SourceAlpha" operator="out" result="shadowBlurOuter1"></feComposite>
            <feColorMatrix values="0 0 0 0 0   0 0 0 0 0   0 0 0 0 0  0 0 0 0.08 0" type="matrix" in="shadowBlurOuter1"></feColorMatrix>
        </filter>
        <filter x="-17.8%" y="-14.5%" width="135.5%" height="129.0%" filterUnits="objectBoundingBox" id="filter-3">
            <feOffset dx="0" dy="1" in="SourceAlpha" result="shadowOffsetOuter1"></feOffset>
            <feGaussianBlur stdDeviation="3" in="shadowOffsetOuter1" result="shadowBlurOuter1"></feGaussianBlur>
            <feColorMatrix values="0 0 0 0 0   0 0 0 0 0   0 0 0 0 0  0 0 0 0.08 0" type="matrix" in="shadowBlurOuter1" result="shadowMatrixOuter1"></feColorMatrix>
            <feMerge>
                <feMergeNode in="shadowMatrixOuter1"></feMergeNode>
                <feMergeNode in="SourceGraphic"></feMergeNode>
            </feMerge>
        </filter>
    </defs>
    <g id="前端总览" stroke="none" stroke-width="1" fill="none" fill-rule="evenodd">
        <g id="PC组件概览备份-3" transform="translate(-125.000000, -2428.000000)">
            <g id="编组-71备份" transform="translate(125.000000, 2428.000000)">
                <g id="编组-70" transform="translate(6.000000, 10.000000)">
                    <g id="编组-14">
                        <g id="编组-7备份">
                            <g id="矩形">
                                <use fill="black" fill-opacity="1" filter="url(#filter-2)" xlink:href="#path-1"></use>
                                <rect stroke="#EDF1F7" stroke-width="0.5" stroke-linejoin="square" fill="#FFFFFF" fill-rule="evenodd" x="0.25" y="0.25" width="75.5" height="92.5"></rect>
                            </g>
                            <g id="编组-99" transform="translate(0.500000, 13.000000)">
                                <rect id="矩形" x="0" y="0" width="74.8905109" height="10"></rect>
                                <rect id="矩形备份-3" stroke="#D4D9E3" stroke-width="0.656934307" fill="#FFFFFF" x="1.5" y="3" width="4" height="4" rx="0.662852634"></rect>
                                <rect id="矩形备份-75" fill="#EDF1F7" x="6.5" y="3" width="14" height="4" rx="1"></rect>
                            </g>
                            <g id="编组-99" transform="translate(0.500000, 33.000000)">
                                <rect id="矩形" x="0" y="0" width="74.8905109" height="10"></rect>
                                <rect id="矩形备份-3" stroke="#D4D9E3" stroke-width="0.656934307" fill="#FFFFFF" x="1.5" y="3" width="4" height="4" rx="0.662852634"></rect>
                                <rect id="矩形备份-75" fill="#EDF1F7" x="6.5" y="3" width="14" height="4" rx="1"></rect>
                            </g>
                            <g id="编组-99" transform="translate(0.500000, 43.000000)">
                                <rect id="矩形" x="0" y="0" width="74.8905109" height="10"></rect>
                                <rect id="矩形备份-3" stroke="#D4D9E3" stroke-width="0.656934307" fill="#FFFFFF" x="1.5" y="3" width="4" height="4" rx="0.662852634"></rect>
                                <rect id="矩形备份-75" fill="#EDF1F7" x="6.5" y="3" width="14" height="4" rx="1"></rect>
                            </g>
                            <g id="编组-99" transform="translate(0.500000, 53.000000)">
                                <rect id="矩形" x="0" y="0" width="74.8905109" height="10"></rect>
                                <rect id="矩形备份-3" stroke="#D4D9E3" stroke-width="0.656934307" fill="#FFFFFF" x="1.5" y="3" width="4" height="4" rx="0.662852634"></rect>
                                <rect id="矩形备份-75" fill="#EDF1F7" x="6.5" y="3" width="14" height="4" rx="1"></rect>
                            </g>
                            <g id="编组-99" transform="translate(0.500000, 23.000000)">
                                <rect id="矩形" fill="#F8FBFF" x="0" y="0" width="74.8905109" height="10"></rect>
                                <rect id="矩形备份-3" stroke="#D4D9E3" stroke-width="0.656934307" fill="#FFFFFF" x="1.5" y="3" width="4" height="4" rx="0.662852634"></rect>
                            </g>
                            <g id="编组-99" transform="translate(0.500000, 53.000000)">
                                <rect id="矩形" x="0" y="0" width="74.8905109" height="10"></rect>
                                <rect id="矩形备份-3" stroke="#D4D9E3" stroke-width="0.656934307" fill="#276FF5" x="1.5" y="3" width="4" height="4" rx="0.662852634"></rect>
                                <path d="M3.09579866,5.48261275 L2.62500999,4.88000088 C2.55597482,4.79163551 2.42539199,4.77372694 2.33334509,4.84000097 C2.24129819,4.906275 2.2226435,5.031635 2.29167868,5.12000037 L2.9166749,5.91999868 C2.99612051,6.02168947 3.15293424,6.02736223 3.24012642,5.93169958 L4.69845094,4.33170296 C4.77421757,4.24857581 4.76544314,4.12222355 4.6788527,4.0494873 C4.59226226,3.97675104 4.46064584,3.98517452 4.38487921,4.06830167 L3.09579866,5.48261275 Z" id="勾选" fill="#FFFFFF" fill-rule="nonzero"></path>
                            </g>
                            <rect id="矩形" fill="#EDF1F7" x="0" y="0" width="76" height="13"></rect>
                            <rect id="矩形" stroke="#D4D9E3" stroke-width="0.656934307" fill="#FFFFFF" x="2" y="4" width="4" height="4" rx="0.662852634"></rect>
                            <rect id="矩形" fill="#276FF5" x="2.5" y="4.5" width="3" height="3" rx="0.530282107"></rect>
                            <text id="（1/20）" font-family="MicrosoftYaHei, Microsoft YaHei" font-size="3.9771158" font-weight="normal" fill="#999999">
                                <tspan x="59.0643495" y="7">（1/20）</tspan>
                            </text>
                        </g>
                        <g id="编组-7备份-3" filter="url(#filter-3)" transform="translate(106.000000, 0.000000)">
                            <rect id="矩形" stroke="#EDF1F7" stroke-width="0.5" fill="#FFFFFF" x="0.25" y="0.25" width="75.5" height="92.5"></rect>
                            <g id="编组-99" transform="translate(0.500000, 13.000000)">
                                <rect id="矩形" x="0" y="0" width="74.8905109" height="10"></rect>
                                <rect id="矩形备份-3" stroke="#D4D9E3" stroke-width="0.656934307" fill="#FFFFFF" x="1.5" y="3" width="4" height="4" rx="0.662852634"></rect>
                                <rect id="矩形备份-78" fill="#EDF1F7" x="6.5" y="3" width="14" height="4" rx="1"></rect>
                            </g>
                            <g id="编组-99" transform="translate(0.500000, 33.000000)">
                                <rect id="矩形" x="0" y="0" width="74.8905109" height="10"></rect>
                                <rect id="矩形备份-3" stroke="#D4D9E3" stroke-width="0.656934307" fill="#FFFFFF" x="1.5" y="3" width="4" height="4" rx="0.662852634"></rect>
                            </g>
                            <g id="编组-99" transform="translate(0.500000, 23.000000)">
                                <rect id="矩形" fill="#F8FBFF" x="0" y="0" width="74.8905109" height="10"></rect>
                                <rect id="矩形备份-3" stroke="#D4D9E3" stroke-width="0.656934307" fill="#FFFFFF" x="1.5" y="3" width="4" height="4" rx="0.662852634"></rect>
                                <rect id="矩形备份-79" fill="#EDF1F7" x="6.5" y="3" width="14" height="4" rx="1"></rect>
                                <rect id="矩形备份-80" fill="#EDF1F7" x="6.5" y="13" width="14" height="4" rx="1"></rect>
                            </g>
                            <rect id="矩形" fill="#EDF1F7" x="0" y="0" width="76" height="13"></rect>
                            <rect id="矩形" stroke="#D4D9E3" stroke-width="0.656934307" fill="#FFFFFF" x="2" y="4" width="4" height="4" rx="0.662852634"></rect>
                            <text id="（0/3）" font-family="MicrosoftYaHei, Microsoft YaHei" font-size="3.9771158" font-weight="normal" fill="#999999">
                                <tspan x="61.2082635" y="7">（0/3）</tspan>
                            </text>
                        </g>
                        <g id="编组-9" transform="translate(84.000000, 39.000000)">
                            <g id="编组-8" transform="translate(0.000000, 16.000000)">
                                <rect id="矩形备份-57" stroke="#D4D9E3" stroke-width="0.656934307" fill="#FFFFFF" x="0.328467153" y="0.328467153" width="13.3430657" height="7.34306569" rx="0.662852634"></rect>
                                <g id="0.-全局样式/1.图标/3.其它图标/动作图标/进入备份" transform="translate(7.000000, 4.000000) scale(-1, 1) translate(-7.000000, -4.000000) translate(6.000000, 2.000000)" fill="#D8D8D8" fill-rule="nonzero">
                                    <path d="M0.0627628326,3.59029437 C-0.0209209442,3.6840202 -0.0209209442,3.8359798 0.0627628326,3.92970563 C0.146446609,4.02343146 0.282124819,4.02343146 0.365808596,3.92970563 L1.93723717,2.16970563 C2.02092094,2.0759798 2.02092094,1.9240202 1.93723717,1.83029437 L0.365808596,0.0702943725 C0.282124819,-0.0234314575 0.146446609,-0.0234314575 0.0627628326,0.0702943725 C-0.0209209442,0.164020203 -0.0209209442,0.315979797 0.0627628326,0.409705627 L1.48266852,2 L0.0627628326,3.59029437 Z" id="颜色"></path>
                                </g>
                            </g>
                            <g id="编组-8备份">
                                <rect id="矩形备份-57" fill="#276FF5" x="0" y="0" width="14" height="8" rx="0.662852634"></rect>
                                <g id="0.-全局样式/1.图标/3.其它图标/动作图标/进入备份" transform="translate(7.000000, 4.000000) scale(-1, 1) translate(-7.000000, -4.000000) translate(6.000000, 2.000000)" fill="#FFFFFF" fill-rule="nonzero">
                                    <path d="M0.0627628326,3.59029437 C-0.0209209442,3.6840202 -0.0209209442,3.8359798 0.0627628326,3.92970563 C0.146446609,4.02343146 0.282124819,4.02343146 0.365808596,3.92970563 L1.93723717,2.16970563 C2.02092094,2.0759798 2.02092094,1.9240202 1.93723717,1.83029437 L0.365808596,0.0702943725 C0.282124819,-0.0234314575 0.146446609,-0.0234314575 0.0627628326,0.0702943725 C-0.0209209442,0.164020203 -0.0209209442,0.315979797 0.0627628326,0.409705627 L1.48266852,2 L0.0627628326,3.59029437 Z" id="颜色" transform="translate(1.000000, 2.000000) scale(-1, 1) translate(-1.000000, -2.000000) "></path>
                                </g>
                            </g>
                        </g>
                    </g>
                    <rect id="矩形备份-74" fill="#BDC6D8" x="7" y="3" width="16" height="6" rx="1"></rect>
                    <rect id="矩形备份-77" fill="#BDC6D8" x="113" y="3" width="16" height="6" rx="1"></rect>
                    <rect id="矩形备份-76" fill="#EDF1F7" x="7" y="26" width="14" height="4" rx="1"></rect>
                </g>
            </g>
        </g>
    </g>
</svg>