<?xml version="1.0" encoding="UTF-8"?>
<svg width="180px" height="22px" viewBox="0 0 180 22" version="1.1" xmlns="http://www.w3.org/2000/svg" xmlns:xlink="http://www.w3.org/1999/xlink">
    <title>切片</title>
    <g id="前端总览" stroke="none" stroke-width="1" fill="none" fill-rule="evenodd">
        <g id="PC组件概览备份-3" transform="translate(-917.000000, -2071.000000)">
            <g id="6.筛选/1.搜索/基础搜索/左备份" transform="translate(917.000000, 2071.000000)">
                <g id="图标/通用操作/f7" fill="#B2B2B2">
                    <path d="M13.4913182,14.8249339 L13.4894428,14.8230436 C13.371264,14.7039298 13.1489525,14.4798593 12.7425466,14.0702379 C11.9179549,13.2391221 11.2767656,12.5928596 10.9304823,12.2438366 L10.8079617,12.1203466 C10.7902511,12.1024959 10.7739172,12.0860328 10.7589932,12.0709907 L10.6921372,12.0036057 L10.6921372,12.0036057 C9.68373085,12.7571705 8.43314094,13.2013798 7.07916642,13.2013798 C3.72173552,13.2013798 1,10.4700079 1,7.10068989 C1,3.7313719 3.72173552,1 7.07916642,1 C10.4365973,1 13.1583328,3.7313719 13.1583328,7.10068989 C13.1583328,8.68260213 12.5583668,10.1238887 11.5743302,11.2078895 L14.3224907,13.9781429 C14.5306944,14.1879939 14.5507175,14.5168776 14.3883886,14.7528794 L14.326,14.826 L14.2550235,14.8876198 C14.0497574,15.0325897 13.7783981,15.0365325 13.5730316,14.8934056 L13.495,14.828 L13.49,14.824 L13.493,14.826 L13.4913182,14.8249339 Z M7.07916642,1.90380591 C4.21913269,1.90380591 1.90061725,4.23053012 1.90061725,7.10068989 C1.90061725,9.97084966 4.21913269,12.2975739 7.07916642,12.2975739 C9.93920016,12.2975739 12.2577156,9.97084966 12.2577156,7.10068989 C12.2577156,4.23053012 9.93920016,1.90380591 7.07916642,1.90380591 Z" id="Combined-Shape"></path>
                </g>
                <polygon id="Rectangle-18" fill="#D9D9D9" transform="translate(90.000000, 21.500000) scale(1, -1) translate(-90.000000, -21.500000) " points="5.27355937e-14 21 180 21 180 22 5.27355937e-14 22"></polygon>
                <rect id="矩形备份-113" fill="#D4D9E3" x="20" y="2" width="44" height="12" rx="1"></rect>
            </g>
        </g>
    </g>
</svg>