<?xml version="1.0" encoding="UTF-8"?>
<svg width="191px" height="89px" viewBox="0 0 191 89" version="1.1" xmlns="http://www.w3.org/2000/svg" xmlns:xlink="http://www.w3.org/1999/xlink">
    <title>编组 23</title>
    <defs>
        <filter x="-7.9%" y="-19.6%" width="115.8%" height="139.1%" filterUnits="objectBoundingBox" id="filter-1">
            <feOffset dx="0" dy="1" in="SourceAlpha" result="shadowOffsetOuter1"></feOffset>
            <feGaussianBlur stdDeviation="3" in="shadowOffsetOuter1" result="shadowBlurOuter1"></feGaussianBlur>
            <feColorMatrix values="0 0 0 0 0   0 0 0 0 0   0 0 0 0 0  0 0 0 0.08 0" type="matrix" in="shadowBlurOuter1" result="shadowMatrixOuter1"></feColorMatrix>
            <feMerge>
                <feMergeNode in="shadowMatrixOuter1"></feMergeNode>
                <feMergeNode in="SourceGraphic"></feMergeNode>
            </feMerge>
        </filter>
    </defs>
    <g id="前端总览" stroke="none" stroke-width="1" fill="none" fill-rule="evenodd">
        <g id="PC组件概览备份-3" transform="translate(-388.000000, -1629.000000)">
            <g id="编组-69备份" transform="translate(388.000000, 1629.000000)">
                <g id="编组-23" transform="translate(10.000000, 10.000000)">
                    <g id="编组" transform="translate(114.000000, 1.000000)" fill="#85B8FF" fill-rule="nonzero">
                        <g id="0.-全局样式/1.图标/1.系统图标/线性图标/时间" transform="translate(3.000000, 3.000000) scale(1, -1) translate(-3.000000, -3.000000) ">
                            <path d="M4.86362622,1.76987622 L3,3.63350244 L1.13637378,1.76987622 C1.02653883,1.66004126 0.848461175,1.66004126 0.738626218,1.76987622 C0.628791261,1.87971117 0.628791261,2.05778883 0.738626218,2.16762378 L2.80112622,4.23012378 C2.91096117,4.33995874 3.08903883,4.33995874 3.19887378,4.23012378 L5.26137378,2.16762378 C5.37120874,2.05778883 5.37120874,1.87971117 5.26137378,1.76987622 C5.15153883,1.66004126 4.97346117,1.66004126 4.86362622,1.76987622 Z" id="颜色"></path>
                        </g>
                    </g>
                    <g id="编组-26" transform="translate(0.000000, 9.000000)" fill="#85B8FF">
                        <rect id="矩形备份-13" x="0" y="0" width="120" height="1"></rect>
                    </g>
                    <g id="编组-24">
                        <g id="编组-22" filter="url(#filter-1)">
                            <g id="编组-4" transform="translate(0.000000, 11.971336)">
                                <rect id="矩形" fill="#FFFFFF" x="0" y="0.0286637516" width="57" height="57"></rect>
                                <rect id="矩形" fill="#F8FBFF" x="0" y="0" width="57" height="19"></rect>
                                <g id="编组" transform="translate(46.000000, 6.028664)" fill="#276FF5" fill-rule="nonzero">
                                    <g id="0.-全局样式/1.图标/1.系统图标/线性图标/时间备份" transform="translate(3.000000, 3.000000) scale(1, -1) translate(-3.000000, -3.000000) ">
                                        <path d="M3.45737622,4.86362622 C3.34754126,4.97346117 3.34754126,5.15153883 3.45737622,5.26137378 C3.56721117,5.37120874 3.74528883,5.37120874 3.85512378,5.26137378 L5.91762378,3.19887378 C6.02745874,3.08903883 6.02745874,2.91096117 5.91762378,2.80112622 L3.85512378,0.738626218 C3.74528883,0.628791261 3.56721117,0.628791261 3.45737622,0.738626218 C3.34754126,0.848461175 3.34754126,1.02653883 3.45737622,1.13637378 L5.32100244,3 L3.45737622,4.86362622 Z" id="颜色"></path>
                                    </g>
                                </g>
                                <g id="编组" transform="translate(46.000000, 26.028664)" fill="#666666" fill-rule="nonzero">
                                    <g id="0.-全局样式/1.图标/1.系统图标/线性图标/时间备份-2" transform="translate(3.000000, 3.000000) scale(1, -1) translate(-3.000000, -3.000000) ">
                                        <path d="M3.45737622,4.86362622 C3.34754126,4.97346117 3.34754126,5.15153883 3.45737622,5.26137378 C3.56721117,5.37120874 3.74528883,5.37120874 3.85512378,5.26137378 L5.91762378,3.19887378 C6.02745874,3.08903883 6.02745874,2.91096117 5.91762378,2.80112622 L3.85512378,0.738626218 C3.74528883,0.628791261 3.56721117,0.628791261 3.45737622,0.738626218 C3.34754126,0.848461175 3.34754126,1.02653883 3.45737622,1.13637378 L5.32100244,3 L3.45737622,4.86362622 Z" id="颜色"></path>
                                    </g>
                                </g>
                            </g>
                            <g id="编组-4备份">
                                <rect id="矩形" fill="#FFFFFF" x="57" y="12" width="57" height="57"></rect>
                                <rect id="矩形" fill="#F8FBFF" x="57" y="11.9713362" width="57" height="19"></rect>
                                <rect id="矩形" fill="#D4D9E3" x="0" y="0" width="24" height="8" rx="1"></rect>
                                <rect id="矩形备份-68" fill="#276FF5" x="6" y="17" width="28" height="8" rx="1"></rect>
                                <rect id="矩形备份-70" fill="#EDF1F7" x="6" y="37" width="28" height="8" rx="1"></rect>
                                <rect id="矩形备份-69" fill="#276FF5" x="62" y="17" width="28" height="8" rx="1"></rect>
                                <rect id="矩形备份-71" fill="#EDF1F7" x="62" y="37" width="28" height="8" rx="1"></rect>
                                <g id="编组" transform="translate(103.000000, 18.000000)" fill="#276FF5" fill-rule="nonzero">
                                    <g id="0.-全局样式/1.图标/1.系统图标/线性图标/时间备份" transform="translate(3.000000, 3.000000) scale(1, -1) translate(-3.000000, -3.000000) ">
                                        <path d="M3.45737622,4.86362622 C3.34754126,4.97346117 3.34754126,5.15153883 3.45737622,5.26137378 C3.56721117,5.37120874 3.74528883,5.37120874 3.85512378,5.26137378 L5.91762378,3.19887378 C6.02745874,3.08903883 6.02745874,2.91096117 5.91762378,2.80112622 L3.85512378,0.738626218 C3.74528883,0.628791261 3.56721117,0.628791261 3.45737622,0.738626218 C3.34754126,0.848461175 3.34754126,1.02653883 3.45737622,1.13637378 L5.32100244,3 L3.45737622,4.86362622 Z" id="颜色"></path>
                                    </g>
                                </g>
                                <g id="编组" transform="translate(103.000000, 38.000000)" fill="#666666" fill-rule="nonzero">
                                    <g id="0.-全局样式/1.图标/1.系统图标/线性图标/时间备份-2" transform="translate(3.000000, 3.000000) scale(1, -1) translate(-3.000000, -3.000000) ">
                                        <path d="M3.45737622,4.86362622 C3.34754126,4.97346117 3.34754126,5.15153883 3.45737622,5.26137378 C3.56721117,5.37120874 3.74528883,5.37120874 3.85512378,5.26137378 L5.91762378,3.19887378 C6.02745874,3.08903883 6.02745874,2.91096117 5.91762378,2.80112622 L3.85512378,0.738626218 C3.74528883,0.628791261 3.56721117,0.628791261 3.45737622,0.738626218 C3.34754126,0.848461175 3.34754126,1.02653883 3.45737622,1.13637378 L5.32100244,3 L3.45737622,4.86362622 Z" id="颜色"></path>
                                    </g>
                                </g>
                            </g>
                            <rect id="矩形" fill="#FFFFFF" x="114" y="12" width="57" height="57"></rect>
                        </g>
                        <line x1="57.5" y1="12" x2="57.5" y2="69" id="路径-5" stroke="#D4D9E3" stroke-width="0.5"></line>
                        <line x1="114.5" y1="12" x2="114.5" y2="69" id="路径-5备份" stroke="#D4D9E3" stroke-width="0.5"></line>
                    </g>
                </g>
                <rect id="矩形备份-72" fill="#EDF1F7" x="128" y="47" width="28" height="8" rx="1"></rect>
                <rect id="矩形备份-73" fill="#EDF1F7" x="128" y="27" width="28" height="8" rx="1"></rect>
            </g>
        </g>
    </g>
</svg>