<?xml version="1.0" encoding="UTF-8"?>
<svg width="76px" height="43px" viewBox="0 0 76 43" version="1.1" xmlns="http://www.w3.org/2000/svg" xmlns:xlink="http://www.w3.org/1999/xlink">
    <title>通用/金蝶标志备份 2@1x</title>
    <g id="KDesign-web" stroke="none" stroke-width="1" fill="none" fill-rule="evenodd">
        <g id="KUI首页/04" transform="translate(-243.000000, -822.000000)" fill="#FFFFFF">
            <g id="通用/金蝶标志备份-2" transform="translate(243.200623, 822.907225)">
                <g id="Group">
                    <path d="M8.45532506,17.080381 C8.45532506,19.4067302 6.56243312,21.2932063 4.22817219,21.2932063 C1.89391127,21.2932063 3.8191672e-14,19.4067302 3.8191672e-14,17.080381 C3.8191672e-14,14.7530159 1.89391127,12.8675556 4.22817219,12.8675556 C6.56243312,12.8675556 8.45532506,14.7530159 8.45532506,17.080381 M19.9824967,28.0074159 C19.9824967,30.6446222 17.8378308,32.782019 15.1926749,32.782019 C12.5464996,32.782019 10.4018336,30.6446222 10.4018336,28.0074159 C10.4018336,25.3702095 12.5464996,23.2328127 15.1926749,23.2328127 C17.8378308,23.2328127 19.9824967,25.3702095 19.9824967,28.0074159 M15.198485,-4.08562073e-14 C18.6213882,-4.08562073e-14 21.3980374,2.76622222 21.3980374,6.17955556 C21.3980374,9.59187302 18.6213882,12.3591111 15.198485,12.3591111 C11.7745626,12.3591111 8.99791331,9.59187302 8.99791331,6.17955556 C8.99791331,2.76622222 11.7745626,-4.08562073e-14 15.198485,-4.08562073e-14 M28.9862202,38.9464381 C28.9862202,40.4976762 27.7253116,41.755327 26.1677785,41.755327 C24.6112648,41.755327 23.3503562,40.4976762 23.3503562,38.9464381 C23.3503562,37.3952 24.6112648,36.1375492 26.1677785,36.1375492 C27.7253116,36.1375492 28.9862202,37.3952 28.9862202,38.9464381" id="形状结合"></path>
                </g>
                <path d="M56.3372448,19.5829003 L55.1763963,19.5829003 L56.006935,15.2025086 L57.1677834,15.2025086 L56.3372448,19.5829003 Z M57.9617974,19.5829003 L58.7907479,15.2025086 L59.9611245,15.2025086 L59.2925648,18.7344392 C59.2147514,19.2300141 58.7843958,19.5829003 58.2698748,19.5829003 L57.9236847,19.5829003 L57.9617974,19.5829003 Z M68.4999508,20.5740503 L66.4688631,20.5740503 C66.3164124,20.5740503 66.1846061,20.6783818 66.1576096,20.8241392 L65.9956308,21.6618603 L61.2251948,21.6618603 C61.0727441,21.6618603 60.9425258,21.7661919 60.9155293,21.9119493 L60.6249202,23.4293599 L64.5076486,23.4293599 C63.394441,24.394427 61.9525116,25.2751082 60.2231492,26.0453207 C60.2040928,25.8427947 60.1103992,25.0879251 60.0230576,24.3591383 C59.9897091,24.0845008 59.9547724,23.8067947 59.9261879,23.5521029 C59.872195,23.0948852 59.8261422,22.7189847 59.8134379,22.5839673 L59.5021845,22.6146531 L59.5005964,22.6146531 L58.6922902,22.6898332 C58.6081247,22.6975046 58.5303114,22.7373961 58.4779064,22.8018362 C58.4239135,22.8662763 58.4000931,22.9475935 58.4096212,23.0289108 L58.6113008,24.7289017 L57.31547,24.8516447 L57.9379769,21.5836117 L58.8558571,21.5836117 C59.7229204,21.5836117 60.4645294,20.9898423 60.6185681,20.1705326 L61.9382193,13.2017972 L59.530769,13.2017972 L60.0834027,10.2789789 L57.9617974,10.2789789 C57.8109347,10.2789789 57.6807164,10.3833105 57.6521319,10.5290678 L57.145551,13.2017972 L55.15734,13.2017972 C55.0033013,13.2017972 54.873083,13.3061288 54.8460865,13.4518862 L53.3041114,21.5836117 L55.554347,21.5836117 L54.8905513,25.0802536 L52.2163122,25.3318768 C52.0749777,25.3441511 51.9622278,25.4454141 51.9368193,25.5804315 L51.6271539,27.2098451 L58.8256846,26.5408956 L59.0702409,28.5830327 C59.1956951,28.530867 59.3179732,28.472564 59.4434274,28.4142611 C59.4513676,28.4127268 59.4593077,28.4127268 59.4672479,28.4096582 C59.5530014,28.371301 59.6403429,28.328341 59.7260964,28.2869152 C59.8483746,28.2316808 59.9690647,28.1749122 60.0897548,28.1181435 C60.2787301,28.0260863 60.4661174,27.9324947 60.6535047,27.8358346 C60.6932054,27.8174231 60.7360822,27.7974774 60.7757829,27.7759973 L60.7757829,27.7744631 C62.6242474,26.8124646 64.3154972,25.6433373 65.4588773,24.5094986 L64.6870957,28.5830327 L66.7150074,28.5830327 C66.8674581,28.5830327 66.9992644,28.4771669 67.0278489,28.3329438 L67.7567538,24.5094986 C68.4316656,25.7415317 69.7227324,26.8876447 71.5934293,27.912549 C71.6442462,27.9401661 71.6966511,27.9539747 71.7506441,27.9539747 C71.8459257,27.9539747 71.9396194,27.912549 71.9999644,27.8343003 C72.1000102,27.7115573 72.203232,27.59802 72.3064538,27.4829484 C72.4239679,27.3463968 72.5462461,27.214448 72.6701122,27.0886364 C72.7336334,27.0241963 72.7971545,26.9597562 72.8606756,26.8983847 C73.0305946,26.7357502 73.2021016,26.5761843 73.3783727,26.4288926 C73.1719291,26.3552468 72.9734256,26.2769981 72.7796862,26.1956809 C72.771746,26.1926123 72.7653939,26.1880094 72.7558658,26.1849409 C72.5668904,26.1051579 72.3842672,26.0223064 72.203232,25.9363862 L72.203232,25.9409891 C70.8105315,25.279711 69.7354366,24.437387 69.0001796,23.4293599 L73.1417565,23.4293599 C73.2942072,23.4293599 73.4260135,23.3219598 73.45301,23.1762024 L73.737267,21.6618603 L68.2919192,21.6618603 L68.4999508,20.5740503 Z M71.007447,15.3728145 C70.9089892,15.8591838 70.4611654,16.2151385 69.9434683,16.2151385 L68.8096163,16.2151385 L69.1764508,14.277333 L71.2154786,14.277333 L71.007447,15.3728145 Z M74.0898092,10.2789789 L72.2397567,10.2789789 C72.085718,10.2789789 71.9539116,10.3833105 71.9269152,10.5290678 L71.5521406,12.5113677 L69.5131127,12.5113677 L69.9355281,10.2789789 L68.0870636,10.2789789 C67.9362009,10.2789789 67.8028066,10.3833105 67.7758101,10.5290678 L67.4057996,12.5113677 L65.8574723,12.5113677 L66.1925462,10.7392653 L64.2662683,10.7392653 C64.1154057,10.7392653 63.9835993,10.8451311 63.9550148,10.9908885 L63.6644057,12.5113677 L62.8433953,12.5113677 C62.6893566,12.5113677 62.5591383,12.6172336 62.5305538,12.7614566 L62.2447087,14.277333 L63.3293318,14.277333 L62.205008,20.199684 L73.1227002,20.199684 C73.2751509,20.199684 73.4069572,20.0953525 73.4355417,19.9495951 L73.7102706,18.5073646 L64.7156802,18.5073646 L65.5208104,14.277333 L67.0707257,14.277333 L66.4339265,17.6006005 L71.3965138,17.6006005 C72.146063,17.6006005 72.7908024,17.086614 72.9321369,16.3808416 L73.3323199,14.277333 L75.0156295,14.277333 C75.1664922,14.277333 75.2982985,14.1714671 75.325295,14.0272441 L75.6143161,12.5113677 L73.6689818,12.5113677 L74.0898092,10.2789789 Z M35.6261842,16.2013299 C37.6763283,15.2654144 39.6899478,14.0103669 41.6114616,12.4730105 C42.8691797,14.053327 44.3238133,15.3068401 45.9356617,16.2013299 L35.6261842,16.2013299 Z M50.8426681,15.7441122 C50.6600448,15.6873435 50.4774216,15.625972 50.2979745,15.5646005 C47.8984642,14.7130708 45.6895174,13.0974657 43.567912,10.6395366 C43.509155,10.5689593 43.4186374,10.5290678 43.3265318,10.5290678 L40.2298773,10.5290678 C40.1536519,10.5290678 40.0774266,10.556685 40.0202576,10.6057822 C36.9728319,13.2263458 33.850769,15.0030512 30.4746216,16.0432983 C30.3475793,16.0831898 30.2570617,16.1967271 30.2538857,16.3271416 C30.2364174,17.0221739 30.1554279,18.200507 30.1443117,18.3830872 C30.4714455,18.2572756 30.9192694,18.0869697 31.4020299,17.9013209 C32.3977234,17.5192832 33.4585261,17.1111626 34.0000436,16.8963623 L33.7634274,18.2020413 L38.9149901,18.2020413 L38.565624,20.0431867 L31.9562516,20.0431867 C31.8022129,20.0431867 31.6704066,20.1505868 31.6434101,20.2963442 L31.3273926,22.0469666 L38.1844973,22.0469666 L37.4111276,26.1251036 L36.6107616,26.1251036 C35.8516842,24.9575106 35.4292688,24.3668098 35.0671984,23.8927148 C35.0497301,23.8697005 35.0338498,23.8497548 35.0179695,23.8282748 C34.986209,23.786849 34.9528604,23.7438889 34.9210998,23.7039974 C34.8305822,23.5873916 34.7384766,23.47232 34.644783,23.3541798 C34.2588922,22.8923592 33.9476387,22.5072529 33.9603429,22.5563501 L32.148403,23.4661828 C32.0658256,23.5076086 32.0070685,23.5812544 31.9848361,23.6671745 C31.9641918,23.7546289 31.9832481,23.8466862 32.0372411,23.9187977 C32.1404629,24.0522808 32.2706812,24.224121 32.4247199,24.4297156 C32.6279875,24.7012845 32.8661916,25.012745 33.1234522,25.3533569 C33.2552585,25.5267314 33.3695965,25.6816945 33.6490894,26.1251036 L29.2407238,26.1251036 C29.0866851,26.1251036 28.9564668,26.2294352 28.9278823,26.3736583 L28.627745,27.966249 L48.5733761,27.966249 C48.7258268,27.966249 48.8576331,27.8619175 48.8846296,27.7146258 L49.1863549,26.1251036 L44.6684154,26.1251036 C45.1972287,25.8458633 45.7641547,25.3917141 46.3374328,24.7948761 L46.3374328,24.7979447 C46.3691933,24.7672589 46.3930137,24.7365732 46.4247743,24.7058874 C46.4835313,24.6414473 46.5438764,24.5785415 46.6026334,24.5110328 C46.6645665,24.4435242 46.7217355,24.3790841 46.7789045,24.314644 C46.8154292,24.2701497 46.8519538,24.2271896 46.8900665,24.1826952 C46.9837601,24.0706922 47.0663376,23.9694292 47.1425629,23.8743034 L47.1600312,23.8543576 L47.1616193,23.8528234 C47.2489608,23.7392861 47.3267742,23.6380231 47.3823551,23.5659115 L45.7085737,22.6990389 C45.6593448,22.6760246 45.6085279,22.6637503 45.5592991,22.6637503 C45.4592533,22.6637503 45.3623836,22.7097789 45.3004505,22.7926305 C44.6922358,23.616543 42.7913663,25.5113885 40.7968032,26.1251036 L40.2314653,26.1251036 L41.0064229,22.0469666 L47.6523199,22.0469666 C47.8047706,22.0469666 47.9365769,21.9411007 47.9635734,21.7953434 L48.2986473,20.0431867 L41.3859616,20.0431867 L41.7353278,18.2020413 L46.5295841,18.2020413 C46.6820348,18.2020413 46.8122531,18.0961754 46.8408376,17.9519524 L47.0568094,16.8165794 C47.2299045,16.8687452 47.4649326,16.9684739 47.7793621,17.1188341 C47.7873023,17.1234369 47.7968304,17.1280398 47.8079466,17.1311084 C48.5590839,17.4088145 49.1117176,17.603669 49.5531894,17.7432892 C49.5849499,17.7555635 49.6198865,17.7601664 49.6532351,17.7601664 C49.7516929,17.7601664 49.8469745,17.715672 49.9073196,17.6343548 C50.0756506,17.4134173 51.0967525,16.3409501 51.4604109,15.9144181 C51.2650835,15.8668552 51.0729321,15.8131551 50.8823688,15.7563865 C50.8696645,15.7517836 50.8569603,15.748715 50.8426681,15.7441122 L50.8426681,15.7441122 Z" id="Fill-1"></path>
            </g>
        </g>
    </g>
</svg>