<?xml version="1.0" encoding="UTF-8"?>
<svg width="512px" height="84px" viewBox="0 0 512 84" version="1.1" xmlns="http://www.w3.org/2000/svg" xmlns:xlink="http://www.w3.org/1999/xlink">
    <title>012</title>
    <defs>
        <linearGradient x1="57.5738724%" y1="16.3878399%" x2="46.1614144%" y2="67.0359048%" id="linearGradient-1">
            <stop stop-color="#0085F0" offset="0%"></stop>
            <stop stop-color="#00CCFF" offset="100%"></stop>
        </linearGradient>
    </defs>
    <g id="页面-1" stroke="none" stroke-width="1" fill="none" fill-rule="evenodd">
        <g id="Apple-TV备份" transform="translate(-223.000000, -308.000000)">
            <g id="012" transform="translate(223.000000, 308.029000)">
                <g id="标准备份-2">
                    <g id="编组-3">
                        <path d="M67.0618,83.0288 C62.7968,83.0288 58.7878,81.3688 55.7718,78.3518 L4.6768,27.2578 C-1.5482,21.0328 -1.5482,10.9028 4.6768,4.6768 C7.6928,1.6618 11.7028,0.0008 15.9668,0.0008 C20.2318,0.0008 24.2418,1.6618 27.2568,4.6768 L78.3518,55.7718 C81.3678,58.7878 83.0288,62.7978 83.0288,67.0618 C83.0288,71.3268 81.3678,75.3368 78.3518,78.3518 C75.3358,81.3688 71.3268,83.0288 67.0618,83.0288" id="Fill-17" fill="#0086F1"></path>
                        <path d="M15.967,0 C7.162,0 -2.84217094e-14,7.163 -2.84217094e-14,15.968 L-2.84217094e-14,15.968 L-2.84217094e-14,67.062 C-2.84217094e-14,75.867 7.162,83.029 15.967,83.029 L15.967,83.029 C24.771,83.029 31.934,75.867 31.934,67.062 L31.934,67.062 L31.934,15.968 C31.934,7.163 24.771,0 15.967,0 Z" id="Fill-19" fill="url(#linearGradient-1)"></path>
                        <path d="M15.9671,83.0288 C11.7021,83.0288 7.6931,81.3688 4.6771,78.3518 C1.6601,75.3368 0.0001,71.3268 0.0001,67.0618 C0.0001,62.7978 1.6601,58.7878 4.6771,55.7718 L55.7721,4.6778 C58.7871,1.6618 62.7971,0.0018 67.0621,0.0018 C71.3261,0.0018 75.3361,1.6618 78.3521,4.6778 C81.3671,7.6928 83.0291,11.7028 83.0291,15.9678 C83.0291,20.2328 81.3671,24.2428 78.3521,27.2578 L27.2571,78.3518 C24.2411,81.3688 20.2321,83.0288 15.9671,83.0288" id="Fill-21" fill="#00CCFF"></path>
                    </g>
                    <g id="编组" transform="translate(107.000000, 21.000000)">
                        <g transform="translate(0.000000, 1.050000)"></g>
                        <path d="M176.1711,12.3589 C181.7111,12.3589 185.8771,13.2689 187.8661,13.8139 C188.5101,13.9869 188.9551,14.5699 188.9551,15.2389 L188.9551,15.2389 L188.9551,43.7379 C188.9551,51.3509 184.3731,55.2099 175.3371,55.2099 C171.3691,55.2099 167.5101,54.4049 165.5641,53.9229 C165.1491,53.8219 164.7981,53.5479 164.6031,53.1669 C164.4071,52.7869 164.3831,52.3379 164.5421,51.9429 L164.5421,51.9429 L164.9281,50.9699 C165.1541,50.3919 165.7081,50.0349 166.3041,50.0349 C166.4341,50.0349 166.5661,50.0499 166.6961,50.0879 C169.6041,50.8879 172.1671,51.2929 174.3141,51.2929 C182.0851,51.2929 182.9261,46.0069 182.9261,43.7379 L182.9261,43.7379 L182.9261,40.3319 C180.3211,42.2399 177.3801,43.2029 174.1791,43.2029 C174.120787,43.2029 174.06228,43.2027358 174.003589,43.2023965 L173.649311,43.1981703 C167.948056,43.0940983 160.7321,41.1726879 160.7321,27.6939 C160.7321,17.5189 165.9251,12.3589 176.1711,12.3589 Z M94.7362,12.1843 C99.3762,12.1843 102.8282,13.3173 104.9962,15.5483 C107.9082,18.5493 107.7812,22.7703 107.7192,24.7933 L107.7192,24.7933 L107.7042,25.4583 C107.7042,25.9213 107.6652,26.4273 107.6102,26.8703 C107.5162,27.6123 106.8872,28.1663 106.1412,28.1663 L106.1412,28.1663 L85.9432,28.1663 C85.9426118,28.1799471 85.9385356,28.2665353 85.9367929,28.4139939 L85.9366565,28.6793256 C85.9509785,30.1165042 86.2222588,34.2405941 88.7472,36.9113 C90.2692,38.5203 92.3562,39.3343 94.9502,39.3343 C98.3912,39.3343 101.2982,38.8043 103.5922,37.7633 C103.7892,37.6773 103.9992,37.6343 104.2032,37.6343 C104.7412,37.6343 105.2592,37.9283 105.5212,38.4383 L105.5212,38.4383 L105.9112,39.1993 C106.2822,39.9223 105.9982,40.8133 105.2732,41.1893 C102.6852,42.5243 99.1972,43.2033 94.9042,43.2033 C81.1442,43.2033 79.6602,32.6853 79.6602,28.1663 C79.6602,17.5613 84.7312,12.1843 94.7362,12.1843 Z M126.0677,12.1842 C130.0427,12.1842 132.8227,12.7722 134.4567,13.2642 C134.8637,13.3842 135.1987,13.6782 135.3737,14.0682 C135.5497,14.4542 135.5517,14.8972 135.3787,15.2872 L135.3787,15.2872 L134.9557,16.2322 C134.7107,16.7712 134.1737,17.1042 133.6037,17.1042 C133.4807,17.1042 133.3577,17.0892 133.2347,17.0602 C131.6977,16.6652 128.7277,16.0002 126.0997,16.0002 C122.5097,16.0002 120.6887,17.1862 120.6887,19.5222 C120.6887,22.1432 123.3117,23.4832 127.3107,25.2222 C131.7577,27.1642 136.7787,29.3562 136.7787,35.0952 C136.7787,40.0962 132.2517,43.2032 124.9617,43.2032 C120.5917,43.2032 117.1397,42.4422 115.4727,41.9892 C115.0657,41.8832 114.7267,41.6032 114.5387,41.2282 C114.3477,40.8522 114.3297,40.4132 114.4827,40.0182 L114.4827,40.0182 L114.8977,38.9682 C115.1257,38.3902 115.6827,38.0342 116.2757,38.0342 C116.4297,38.0342 116.5877,38.0572 116.7427,38.1062 C119.3717,38.9832 121.9217,39.4452 124.1197,39.4452 C126.1087,39.4452 130.7417,39.0072 130.7417,34.9402 C130.7417,32.0642 127.8797,30.5272 123.5167,28.5132 L123.5167,28.5132 L122.994172,28.2716573 C122.732852,28.1505744 122.471672,28.028904 122.211635,27.906105 L121.693382,27.6588419 C117.994421,25.8737072 114.6677,23.7826 114.6677,19.7922 C114.6677,14.7432 118.5037,12.1842 126.0677,12.1842 Z M53.0149,0.7519 C57.6929,0.7519 72.9609,2.2599 72.9609,21.6529 C72.9609,41.6329 57.8209,43.2029 53.1809,43.2029 L52.8336462,43.202476 C46.2369,43.1864568 39.7389,42.7219 39.7389,42.7219 C38.9409,42.6929 38.3119,42.0369 38.3119,41.2419 L38.3119,41.2419 L38.3119,2.6109 C38.3119,1.8259 38.9219,1.1799 39.7039,1.1319 C42.1589,0.9919 47.1539,0.7519 53.0149,0.7519 Z M4.467,1.05 C5.283,1.05 5.946,1.71 5.946,2.529 L5.946,2.529 L5.946,18.735 L22.541,1.484 C22.819,1.205 23.195,1.05 23.587,1.05 L23.587,1.05 L27.928,1.05 C28.526,1.05 29.068,1.412 29.296,1.961 C29.526,2.515 29.398,3.151 28.974,3.575 L28.974,3.575 L13.467,19.084 L31.568,40.12 C31.944,40.558 32.033,41.175 31.789,41.7 C31.549,42.225 31.024,42.563 30.446,42.563 L30.446,42.563 L26.512,42.563 C26.08,42.563 25.671,42.375 25.389,42.047 L25.389,42.047 L9.415,23.133 L5.946,26.605 L5.946,41.016 C5.946,41.835 5.283,42.495 4.467,42.495 L4.467,42.495 L1.48,42.495 C0.662,42.495 0,41.835 0,41.016 L0,41.016 L0,2.529 C0,1.71 0.662,1.05 1.48,1.05 L1.48,1.05 Z M149.9562,12.8931 C150.7722,12.8931 151.4352,13.5531 151.4352,14.3721 L151.4352,14.3721 L151.4352,41.0161 C151.4352,41.8351 150.7722,42.4951 149.9562,42.4951 L149.9562,42.4951 L146.8842,42.4951 C146.0672,42.4951 145.4052,41.8351 145.4052,41.0161 L145.4052,41.0161 L145.4052,14.3721 C145.4052,13.5531 146.0672,12.8931 146.8842,12.8931 L146.8842,12.8931 Z M213.7292,12.1848 C221.2632,12.1848 223.5782,14.2948 224.6642,15.8848 C226.2232,18.1588 226.2232,21.2238 226.2232,24.7698 L226.2232,41.0158 C226.2232,41.8348 225.5602,42.4948 224.7442,42.4948 L224.7442,42.4948 L221.6722,42.4948 C220.8552,42.4948 220.1932,41.8348 220.1932,41.0158 L220.1932,41.0158 L220.1932,25.1498 C220.1932,24.9984557 220.192643,24.8472319 220.191348,24.6962832 L220.185067,24.2444176 C220.100911,19.9624783 219.269823,16.0298 213.4932,16.0298 C208.9882,16.0298 206.1022,18.1678 204.7822,19.8158 L204.7822,19.8158 L204.7822,41.0158 C204.7822,41.8348 204.1202,42.4948 203.3042,42.4948 L203.3042,42.4948 L200.2322,42.4948 C199.4152,42.4948 198.7532,41.8348 198.7532,41.0158 L198.7532,41.0158 L198.7532,14.3718 C198.7532,13.5528 199.4152,12.8928 200.2322,12.8928 L200.2322,12.8928 L202.3472,12.8928 C202.9802,12.8928 203.5442,13.2978 203.7492,13.8948 L203.7492,13.8948 L204.3322,15.6148 C206.9322,13.3368 210.0922,12.1848 213.7292,12.1848 Z M176.3341,16.2079 C172.0831,16.2079 167.0141,18.2029 167.0141,27.6939 C167.0141,37.9759 171.7071,39.2959 175.7951,39.2959 C178.4691,39.2959 180.9341,38.0869 182.9261,35.7979 L182.9261,35.7979 L182.9231,17.0749 C181.4811,16.6799 179.1651,16.2079 176.3341,16.2079 Z M52.6619,5.9349 C49.2129,5.9349 46.2449,6.0459 44.3419,6.1419 L44.3419,6.1419 L44.3419,37.5289 C46.1489,37.6249 49.0489,37.7359 52.7619,37.7359 L52.8638582,37.735383 C56.3017354,37.7008982 66.9319,35.90585 66.9319,21.7439 C66.9319,7.8729 56.0089,5.9349 52.6619,5.9349 Z M94.8202,16.0303 C86.3774222,16.0303 86.0398721,23.7990307 86.0276338,24.5669662 L86.0272,24.6153 L101.8722,24.6153 C101.8842,24.4613 102.2012,20.5053 99.9612,18.0333 C98.7542,16.7043 97.0242,16.0303 94.8202,16.0303 Z M148.506,0 C150.602,0 152.307,1.706 152.307,3.806 C152.307,5.902 150.602,7.607 148.506,7.607 C146.407,7.607 144.701,5.902 144.701,3.806 C144.701,1.706 146.407,0 148.506,0 Z" id="形状结合" fill="#4E4D4F"></path>
                    </g>
                </g>
                <text id="React" font-family="FZLTHJW--GB1-0, FZLanTingHeiS-R-GB" font-size="40" font-weight="normal" fill="#4E4D4F">
                    <tspan x="397" y="62">React</tspan>
                </text>
                <rect id="矩形备份-3" fill="#000000" opacity="0.600000024" x="367" y="28" width="2" height="37"></rect>
            </g>
        </g>
    </g>
</svg>