<?xml version="1.0" encoding="UTF-8"?>
<svg width="192px" height="30px" viewBox="0 0 192 30" version="1.1" xmlns="http://www.w3.org/2000/svg" xmlns:xlink="http://www.w3.org/1999/xlink">
    <title>l13@1x</title>
    <g id="页面-1" stroke="none" stroke-width="1" fill="none" fill-rule="evenodd">
        <g id="1" transform="translate(-575, -418)">
            <g id="l13" transform="translate(575, 418)">
                <g id="React备份" transform="translate(153.7083, 9.8676)" fill="#1882F0" fill-rule="nonzero">
                    <path d="M1.24569817,1.08050847 L1.24569817,4.86228814 L4.76614951,4.86228814 C6.53540197,4.82627119 7.42002821,4.15995763 7.42002821,2.86334746 C7.38392102,1.71080508 6.49929478,1.11652542 4.76614951,1.08050847 L1.24569817,1.08050847 Z M9.53229901,10.8050847 L7.85331453,10.8050847 L4.11622003,5.94279661 L1.24569817,5.94279661 L1.24569817,10.8050847 L0,10.8050847 L0,0 L5.03695346,0 C7.34781382,0.108050847 8.57545839,1.08050847 8.71988717,2.91737288 C8.71988717,4.79025424 7.63667137,5.79872881 5.47023977,5.94279661 L9.53229901,10.8050847 Z" id="形状"></path>
                    <path d="M11.590409,6.26694915 L16.3023977,6.26694915 C16.2301834,4.68220339 15.4538787,3.85381356 13.9734838,3.78177966 C12.4930889,3.92584746 11.6987306,4.75423729 11.590409,6.26694915 Z M16.3023977,8.31991525 L17.4939351,8.6440678 C17.0606488,10.2288136 15.9052186,11.003178 14.0276446,10.967161 C11.6084626,10.8591102 10.3627645,9.52648305 10.2905501,6.96927966 C10.3988717,4.26800847 11.6265162,2.86334746 13.9734838,2.75529661 C16.2843441,2.82733051 17.4758815,4.23199153 17.5480959,6.96927966 C17.5480959,7.11334746 17.5480959,7.20338983 17.5480959,7.23940678 L11.5362482,7.23940678 C11.6084626,9.00423729 12.4208745,9.94067797 13.9734838,10.0487288 C15.2011283,10.0487288 15.977433,9.47245763 16.3023977,8.31991525 Z" id="形状"></path>
                    <path d="M24.3723554,7.72563559 L24.3723554,6.69915254 C24.2279267,6.98728814 23.451622,7.18538136 22.0434415,7.2934322 C20.5991537,7.47351695 19.8950635,7.97775424 19.9311707,8.80614407 C19.9672779,9.59851695 20.5630465,9.99470339 21.7184767,9.99470339 C23.3433004,9.88665254 24.2279267,9.13029661 24.3723554,7.72563559 Z M20.093653,5.34851695 L18.9562764,5.02436441 C19.3534556,3.40360169 20.5269394,2.62923729 22.4767278,2.70127119 C24.6070522,2.66525424 25.6361072,3.67372881 25.5638928,5.72669492 L25.5638928,8.91419492 C25.5277856,9.77860169 25.6722144,10.3908898 25.9971791,10.7510593 L24.8598025,10.7510593 C24.6070522,10.4629237 24.480677,10.1027542 24.480677,9.67055085 C23.8307475,10.5349576 22.8016925,10.967161 21.393512,10.967161 C19.7325811,10.8951271 18.8479549,10.2108051 18.7396333,8.91419492 C18.7757405,7.40148305 19.7325811,6.55508475 21.6101551,6.375 C23.1266573,6.2309322 24.0473907,6.03283898 24.3723554,5.78072034 C24.480677,4.34004237 23.8307475,3.65572034 22.422567,3.72775424 C21.0504937,3.65572034 20.274189,4.19597458 20.093653,5.34851695 Z" id="形状"></path>
                    <path d="M32.7672779,5.4565678 L33.9046544,5.07838983 C33.4713681,3.56567797 32.3881523,2.79131356 30.6550071,2.75529661 C28.4163611,2.86334746 27.2609309,4.25 27.1887165,6.91525424 C27.2248237,9.54449153 28.3983075,10.8951271 30.7091678,10.967161 C32.6228491,11.0391949 33.7241185,10.1387712 34.012976,8.26588983 L32.8214386,7.99576271 C32.7131171,9.36440678 32.0270804,10.0487288 30.7633286,10.0487288 C29.2107193,10.0487288 28.4344147,9.00423729 28.4344147,6.91525424 C28.4344147,4.79025424 29.2107193,3.72775424 30.7633286,3.72775424 C31.77433,3.79978814 32.4423131,4.37605932 32.7672779,5.4565678 Z" id="路径"></path>
                    <path d="M38.0750353,10.1027542 L38.2916784,10.6970339 C37.9306065,10.8411017 37.5334274,10.9131356 37.100141,10.9131356 C35.9808181,10.9491525 35.4392102,10.3728814 35.4753173,9.18432203 L35.4753173,3.88983051 L34.3921016,3.88983051 L34.3921016,2.91737288 L35.4753173,2.91737288 L35.4753173,0.810381356 L36.6126939,0.216101695 L36.6126939,2.91737288 L38.0750353,2.91737288 L38.0750353,3.88983051 L36.6126939,3.88983051 L36.6126939,9.18432203 C36.5765867,9.86864407 36.8654443,10.1927966 37.4792666,10.1567797 C37.6959097,10.1567797 37.8944993,10.1387712 38.0750353,10.1027542 Z" id="路径"></path>
                </g>
                <g id="编组-19备份">
                    <g id="编组-18">
                        <path d="M6.04313578,12.3541057 C6.04313578,14.0183602 4.6899926,15.3675657 3.020881,15.3675657 C1.35314318,15.3675657 0,14.0183602 0,12.3541057 C0,10.6898512 1.35314318,9.34064571 3.020881,9.34064571 C4.6899926,9.34064571 6.04313578,10.6898512 6.04313578,12.3541057" id="Fill-641" fill="#00CAFF"></path>
                        <path d="M14.2834574,20.1688445 C14.2834574,22.055003 12.7503496,23.5836495 10.8587122,23.5836495 C8.96704895,23.5836495 7.43394115,22.055003 7.43394115,20.1688445 C7.43394115,18.282686 8.96704895,16.7540396 10.8587122,16.7540396 C12.7503496,16.7540396 14.2834574,18.282686 14.2834574,20.1688445" id="Fill-642" fill="#00C7CC"></path>
                        <path d="M10.8400237,0 C13.3429912,0 15.3720321,2.04094344 15.3720321,4.5585438 C15.3720321,7.07617 13.3429912,9.11711344 10.8400237,9.11711344 C8.33703021,9.11711344 6.30801529,7.07617 6.30801529,4.5585438 C6.30801529,2.04094344 8.33703021,0 10.8400237,0" id="Fill-643" fill="#1882F0"></path>
                        <path d="M20.7191042,27.9919312 C20.7191042,29.1014256 19.8179073,30 18.7051749,30 C17.5924425,30 16.6898718,29.1014256 16.6898718,27.9919312 C16.6898718,26.8824369 17.5924425,25.9838625 18.7051749,25.9838625 C19.8179073,25.9838625 20.7191042,26.8824369 20.7191042,27.9919312" id="Fill-644" fill="#A068FF"></path>
                    </g>
                    <path d="M75.123232,14.9068809 L71.1132583,14.9068809 L71.1558454,14.8192151 C71.2891016,14.5534782 71.8221007,13.6795857 73.1079548,13.5795919 L73.2878935,13.5782221 C74.4844522,13.5782221 74.9336509,14.2590018 75.1012515,14.8288036 L75.123232,14.9068809 Z M76.7016743,12.738574 C75.9035366,12.0810805 74.7454695,11.689324 73.6024881,11.689324 L73.1203188,11.689324 L73.1052072,11.689324 C71.8536975,11.738636 70.7849259,12.0797107 69.9277158,12.7043295 L69.913978,12.7152878 C68.6665897,13.7097208 68.0099508,14.9479743 67.9604949,16.3971736 C67.9316456,17.4697098 68.2517353,18.3627793 68.9124955,19.0504078 C69.8906239,20.0694969 71.4553285,20.4530347 72.5927889,20.4722116 L72.5969102,20.4722116 C72.7864913,20.4722116 72.9362328,20.4722116 73.1024597,20.444816 C74.6575479,20.309208 75.9763467,19.7010266 76.9201047,18.6860469 L76.93659,18.6682398 C77.0382494,18.5600273 77.1193022,18.4655126 77.1921123,18.3737375 C77.20585,18.3573001 77.218214,18.339493 77.2278305,18.3216859 C77.3693294,18.1395054 77.4970905,17.9559552 77.6069926,17.7724308 C77.6207303,17.7505143 77.6207303,17.721749 77.6083663,17.6984627 C77.5960024,17.6765463 77.5712744,17.6614787 77.5437989,17.6614787 L74.8883422,17.6614787 C74.7619549,17.6614787 74.6424364,17.7162699 74.558636,17.8093889 C74.4597242,17.9217107 74.3360844,18.031293 74.2014544,18.1258077 C73.8923548,18.3422326 73.5269305,18.4792104 73.1450467,18.5203037 C73.1285614,18.5216735 73.1107023,18.5244131 73.094217,18.5285224 C72.9884363,18.5531784 72.8771605,18.5531784 72.7384091,18.5531784 C72.0858656,18.5175642 71.5583617,18.2819623 71.2162915,17.8737685 C70.9442839,17.5491569 70.7917948,17.1026093 70.8343819,16.7615346 L70.8412507,16.7081132 L77.5561629,16.709483 C77.7897047,16.709483 77.9834071,16.5259327 77.9957711,16.2930705 C78.0136302,15.9479123 78.0040137,15.6054677 77.9641743,15.2739815 C77.8721313,14.5192596 77.579517,13.4659003 76.7016743,12.738574 L76.7016743,12.738574 Z M37.923355,12.029029 C37.9082435,12.0125916 37.8876368,12.0030032 37.8656564,12.0030032 L35.3626889,12.0030032 C35.1511274,12.0030032 34.969789,12.1536788 34.9299495,12.3605152 L33.4243172,20.29688 C33.4201959,20.3174267 33.425691,20.3393431 33.4394287,20.3571502 C33.4531665,20.3735876 33.4737731,20.383176 33.4957536,20.383176 L36.0000949,20.383176 C36.2116563,20.383176 36.3929947,20.2325004 36.4328342,20.025664 L37.9384665,12.0892992 C37.9425878,12.0687525 37.9370927,12.0454663 37.923355,12.029029 L37.923355,12.029029 Z M28.9816042,14.7808614 L28.9816042,14.7808614 L29.0145749,14.7452471 L34.2155861,9.17309342 C34.2293239,9.15939564 34.2375665,9.14021875 34.2375665,9.11967208 C34.2375665,9.07857874 34.2059697,9.04707384 34.1647564,9.04707384 L31.0573275,9.04707384 C30.9378091,9.04707384 30.8210381,9.09638585 30.7372378,9.18405165 C29.9899297,9.97164818 26.7739726,13.4535723 26.7410019,13.4891865 L27.555625,9.13336986 C27.5597464,9.11145341 27.5542513,9.08953696 27.5405135,9.07309963 C27.525402,9.05666229 27.5047953,9.04707384 27.4828149,9.04707384 L24.8356009,9.04570407 C24.6254132,9.04570407 24.4427011,9.19637965 24.4028616,9.40184636 L22.2927939,20.2955102 C22.2886725,20.3174267 22.2941677,20.3393431 22.3079054,20.3557805 C22.3216432,20.3735876 22.3422498,20.383176 22.3642302,20.383176 L25.0444148,20.383176 C25.2559763,20.383176 25.4373147,20.2325004 25.4771542,20.025664 L26.2904035,15.7218989 L29.3346387,20.1900373 C29.4170652,20.3105778 29.553069,20.383176 29.6986893,20.383176 L32.6371437,20.383176 C32.6646192,20.383176 32.6893472,20.3681085 32.7017112,20.3448222 C32.7140752,20.3201662 32.7127014,20.2914009 32.6975899,20.2694844 L28.9816042,14.7808614 Z M63.7142059,18.401133 C63.7142059,18.401133 60.380104,18.6997447 60.5216029,16.2204722 C60.6878298,13.3165945 64.601665,13.843959 64.601665,13.843959 L63.7142059,18.401133 Z M68.628124,9.0744694 C68.6143862,9.05666229 68.5937796,9.04707384 68.5717992,9.04707384 L65.8916145,9.04707384 C65.6814268,9.04707384 65.5000884,9.19637965 65.460249,9.40321614 L64.9822009,11.861916 C64.9822009,11.861916 60.7606399,11.2866093 58.7906714,13.5535661 C56.9086246,15.7191593 56.9086246,20.3845458 62.8968353,20.3845458 L66.4315084,20.3845458 C66.4672266,20.3845458 66.4974496,20.35852 66.5043185,20.3242756 L68.6432355,9.13473964 C68.6473568,9.11282319 68.6418617,9.09090674 68.628124,9.0744694 L68.628124,9.0744694 Z M81.7117567,14.9068809 L81.7557175,14.8192151 C81.9260657,14.479536 82.4590907,13.6768461 83.7353024,13.5795919 L83.9413688,13.5795919 C85.1131736,13.5795919 85.5610245,14.2590018 85.7299989,14.8288036 L85.7519793,14.9068809 L81.7117567,14.9068809 Z M88.5915219,15.2753512 C88.5008527,14.5192596 88.2082385,13.4659003 87.3304217,12.738574 C86.519894,12.0728619 85.3906763,11.6906938 84.2298617,11.689324 L83.7490402,11.689324 L83.7325549,11.6906938 C82.1225156,11.750964 81.1141902,12.2783286 80.5523159,12.7098086 C79.2747304,13.696023 78.6139443,14.9356463 78.5864687,16.3971736 C78.5493768,17.4642307 78.8625977,18.3545606 79.5165149,19.0408194 C80.4932435,20.0653875 82.0538269,20.4516649 83.1912872,20.4722116 L83.205025,20.4722116 L83.2187628,20.4722116 C83.4207078,20.4722116 83.5759444,20.469472 83.7298073,20.444816 C85.2835218,20.3105778 86.6023206,19.7023963 87.548852,18.6860469 L87.5694587,18.6627606 C87.6683705,18.555918 87.7480495,18.4641428 87.8194859,18.3737375 C87.8332236,18.3573001 87.8455876,18.339493 87.855204,18.3216859 C87.9967029,18.1408752 88.1244381,17.9559552 88.235714,17.7738005 C88.248078,17.7505143 88.2494517,17.721749 88.235714,17.6998325 C88.22335,17.6765463 88.198622,17.6614787 88.1725203,17.6614787 L85.5225587,17.6614787 C85.3934238,17.6614787 85.2711578,17.7176396 85.1873575,17.8162378 C85.0637176,17.9586947 84.5994074,18.4340077 83.7737682,18.5203037 C83.7572828,18.5230433 83.7394238,18.5257828 83.7215647,18.5298922 C83.6157839,18.5531784 83.5058819,18.5531784 83.3657568,18.5531784 C82.7159868,18.518934 82.2104373,18.302509 81.862872,17.9134921 C81.4919526,17.4971054 81.4177946,16.9957666 81.4329061,16.7656439 L81.4370275,16.709483 L88.1835105,16.709483 C88.4184262,16.709483 88.6107548,16.5273025 88.6231187,16.2930705 C88.6423516,15.949282 88.6313614,15.6068375 88.5915219,15.2753512 L88.5915219,15.2753512 Z M53.6651919,18.3079881 L53.6651919,18.3079881 C53.6445853,18.3134672 53.1335666,18.4463357 52.5057511,18.4463357 C51.0811716,18.4463357 50.2967716,17.7477748 50.2967716,16.4779905 C50.4739627,14.1987315 52.4150819,13.856287 53.5553158,13.856287 C54.1061739,13.856287 54.5004476,13.9329946 54.5183067,13.9357341 L53.6651919,18.3079881 Z M57.7425065,11.9591703 C57.7301425,11.9427329 57.7122834,11.9317747 57.6916768,11.9304049 C56.4869014,11.7934271 55.3810119,11.7249382 54.4056571,11.7249382 C51.7556955,11.7249382 50.6786553,12.2344957 50.2720436,12.4262646 L50.263801,12.4303739 C47.2415203,14.0836702 47.4420915,16.857419 47.6495317,17.5587454 C48.7581428,21.291313 53.2379736,20.3037289 53.2379736,20.3037289 L53.2104981,20.4037227 C53.070373,20.9009521 52.818972,21.2954224 52.4398099,21.6104713 C51.8120203,22.1282474 50.4025264,22.7144866 47.5822167,22.1720803 C47.5533674,22.1666012 47.5231443,22.1638616 47.4929212,22.1638616 C47.4063734,22.1638616 47.3211993,22.1885176 47.2497629,22.2364599 C47.1522249,22.3008394 47.0835361,22.4035728 47.0615816,22.5186342 L46.6961572,24.3691526 C46.6934097,24.3883295 46.697531,24.4088762 46.7085212,24.4253135 C46.7195114,24.4403811 46.7373705,24.4513393 46.7579771,24.4554486 C46.9228302,24.4814744 47.1137591,24.5116095 47.3253206,24.5417446 L47.4338489,24.5568122 C47.4915475,24.5650309 47.5478723,24.5732495 47.6069446,24.5800984 C47.6522792,24.5869473 47.6989876,24.5924264 47.745696,24.5979055 C47.7896568,24.6033846 47.8336176,24.6088638 47.8775784,24.6143429 C48.5658401,24.6978993 49.1867608,24.7376229 49.7774844,24.7376229 C50.7473441,24.7376229 51.6251868,24.6266709 52.3834851,24.4075064 C53.4646466,24.0828948 54.2751484,23.5911445 54.8617506,22.9035159 C55.7134656,21.9173016 56.0404243,20.8434214 56.3756255,19.0846523 L57.7548705,12.016701 C57.7589918,11.9961543 57.7548705,11.9756076 57.7425065,11.9591703 L57.7425065,11.9591703 Z M35.3104854,10.8784412 L37.8162005,10.8784412 C38.0277619,10.8784412 38.2091003,10.7277657 38.2489398,10.5209292 L38.5140786,9.13336986 C38.5181999,9.11145341 38.5127048,9.08953696 38.498967,9.07309963 C38.4852293,9.05666229 38.4646226,9.04707384 38.4426422,9.04707384 L35.9396487,9.04707384 C35.7280873,9.04707384 35.5467748,9.19637965 35.5069353,9.40321614 L35.239049,10.7907754 C35.2349277,10.8126919 35.2404228,10.8346083 35.2541606,10.8510457 C35.2678983,10.867483 35.288505,10.8784412 35.3104854,10.8784412 L35.3104854,10.8784412 Z M47.071198,14.8808552 L47.0766672,14.8233245 L47.0766672,14.8123663 L47.0821623,14.7466169 L47.0986476,14.5247387 C47.1000957,14.5151503 47.1000957,14.504192 47.1000957,14.4946036 C47.1055165,13.6631483 46.8060593,12.998806 46.2359424,12.5700913 C46.2331948,12.5673517 46.2290735,12.5659819 46.2263259,12.5632424 C45.6218646,12.2358654 44.9638519,12.0687525 44.2700952,12.0687525 C43.3483176,12.0687525 42.5020717,12.3564059 41.8687871,12.6070753 C41.8687871,12.6070753 42.0144073,12.0030032 41.452533,12.0030032 L39.2325373,12.0030032 C39.1981929,12.0030032 39.1679699,12.0276592 39.161101,12.0619036 L37.5730422,20.29688 C37.5689208,20.3174267 37.5744159,20.3393431 37.5881537,20.3571502 C37.6018915,20.3735876 37.6224981,20.383176 37.6444785,20.383176 L40.0073469,20.383176 C40.2175345,20.383176 40.3988729,20.2338702 40.4387124,20.0270337 L41.0513905,16.8711168 C41.1983845,16.0492758 41.4319264,15.3863033 41.7231668,14.9548232 C42.0308926,14.4822756 42.5405375,14.1891431 43.0529558,14.1891431 C44.3401578,14.1891431 44.2618525,15.2958979 43.9939663,16.5752448 L43.9925925,16.5834634 L43.3016092,20.29688 C43.2974879,20.3187965 43.3043568,20.3407129 43.3180945,20.3571502 C43.3318323,20.3735876 43.3524389,20.383176 43.3744193,20.383176 L44.608044,20.383176 L45.680937,20.383176 C45.8911246,20.383176 46.0738368,20.2338702 46.1136763,20.0270337 C46.121919,19.9818311 47.0080043,15.400001 47.0134994,15.3739753 C47.04647,15.1822063 47.0602078,15.0246818 47.071198,14.8808552 L47.071198,14.8808552 Z" id="Fill-645" fill="#1882F0"></path>
                    <path d="M114.531547,12.9162906 C115.661936,12.9162906 116.257087,13.4187784 116.35144,14.4545925 L116.364142,14.5997154 L117.380219,14.2496066 L117.372961,14.1625329 C117.278642,12.7131187 116.31878,11.9784686 114.518845,11.9784686 C112.688064,12.052844 111.599373,12.8364731 111.281839,14.3076557 C111.174784,14.7611645 111.238291,15.1620321 111.466916,15.5012567 C111.858845,16.083562 112.71891,16.4735796 114.092441,16.6894498 C115.148437,16.852713 115.812539,17.1338542 116.066566,17.5238718 C116.191766,17.7161595 116.218983,17.9320297 116.148218,18.1932508 C115.941367,19.1619114 115.130326,19.6353746 113.662408,19.6353746 L113.548096,19.6353746 C112.196339,19.6353746 111.510464,19.0440334 111.448771,17.8286297 L111.441513,17.6853209 L110.419992,17.9701245 L110.432694,18.0680824 C110.643174,19.6952378 111.661066,20.5188098 113.455557,20.5188098 C113.495476,20.5188098 113.535394,20.5188098 113.575313,20.5169958 C115.687339,20.4807151 116.904858,19.6934238 117.191547,18.1841806 C117.2859,17.7197876 117.213321,17.3116297 116.977438,16.966963 C116.590952,16.4082743 115.754475,16.0182567 114.489813,15.8078286 C113.284995,15.6119128 112.548349,15.310783 112.305208,14.9135092 C112.20904,14.7502803 112.19271,14.5725048 112.265289,14.3530066 C112.434036,13.3879398 113.176126,12.9162906 114.531547,12.9162906 M124.59598,12.0131064 C125.793506,12.045759 126.644499,12.4756854 127.138005,13.290153 L127.29405,12.1781836 L128.282945,12.1781836 L128.266614,12.3069801 L127.290421,19.2528186 C127.03095,21.8269004 125.677379,23.1311575 123.262334,23.1311575 C123.164352,23.1311575 123.06274,23.1293435 122.961129,23.1257154 C121.638404,23.0858067 120.664026,22.6649505 120.06528,21.8758793 L120.001773,21.7906197 L120.664026,21.2065003 L120.740234,21.2953881 C121.241032,21.8885776 122.023075,22.2059995 123.060926,22.2404662 C123.09903,22.2422802 123.13532,22.2422802 123.173424,22.2422802 C125.062268,22.2422802 126.069307,21.3788337 126.250756,19.6065554 L126.339666,18.9843413 C125.711854,19.7353519 124.721145,20.1162651 123.387533,20.1162651 C122.35694,20.0817985 121.587598,19.7734125 121.101317,19.2002115 C120.538826,18.5399027 120.341047,17.518635 120.513423,16.1617367 C120.987004,13.5568162 122.362383,12.1636713 124.59598,12.0131064 Z M120.001944,12.177636 L119.983799,12.3064325 L118.847932,20.3878228 L117.804637,20.3878228 L117.822782,20.2590263 L118.96043,12.177636 L120.001944,12.177636 Z M124.715702,12.8983556 C122.962944,12.969103 121.921464,14.0466057 121.549494,16.1943893 C121.404336,17.364442 121.560381,18.2260746 122.012188,18.7485167 C122.369641,19.1639308 122.930283,19.379801 123.676036,19.3961273 C125.396134,19.3598466 126.381399,18.4256185 126.680789,16.539056 L126.849502,15.3381989 C126.923895,13.8398057 126.225353,13.0398504 124.715702,12.8983556 Z M120.417085,9.22462613 L119.375605,9.22462613 L119.174197,10.6540517 L120.217491,10.6540517 L120.417085,9.22462613 Z M108.95697,15.8455469 L103.455555,15.7911258 C103.929135,13.7050195 105.259119,12.9631133 106.594579,12.9631133 C107.394733,12.9631133 108.053391,13.1318185 108.448948,13.5707809 C108.906164,14.0768967 109.111201,14.7408336 108.95697,15.8455469 M106.723373,12.1613097 C104.146874,12.2755939 102.746091,13.6868791 102.441258,16.4732031 C102.308835,17.6577681 102.553756,18.6481972 103.143464,19.3357165 C103.729542,20.0195736 104.624049,20.3914509 105.808907,20.4422438 C107.761259,20.4422438 109.069468,19.6531727 109.724497,18.1638497 L108.802773,17.9243971 C108.263871,19.0980779 107.184253,19.6549868 105.88693,19.6713131 C105.057711,19.6821973 104.408159,19.4717692 103.96724,18.9946779 C103.486401,18.4704217 103.275921,17.6704664 103.404749,16.6419084 L109.90776,16.6419084 C109.90776,16.6419084 110.354123,14.2601143 109.198296,13.0937238 C108.632211,12.5241167 107.833838,12.177636 106.723373,12.1613097 M135.835446,12.7064102 C135.432631,12.2456794 134.788489,12.0116689 133.917536,12.0116689 C133.88669,12.0116689 133.854029,12.0134829 133.821368,12.0134829 C132.629286,12.0443215 131.640392,12.5576593 130.872899,13.5390524 L131.056162,12.2311671 L130.069082,12.2311671 L128.938693,20.2599504 L128.920548,20.3887469 L129.907593,20.3887469 L130.611613,15.3875201 C131.07975,13.8165998 132.032321,13.0039119 133.518384,12.8968839 C133.54923,12.8968839 133.578262,12.8968839 133.607293,12.8968839 C134.231442,12.8968839 134.690507,13.060147 134.971752,13.3794173 C135.309246,13.7676208 135.409043,14.4061612 135.267513,15.282306 L134.567122,20.2599504 L134.548977,20.3887469 L135.537871,20.3887469 L136.26726,15.2079306 C136.445079,14.0796349 136.29992,13.2379225 135.835446,12.7064102 M100.518315,14.8092193 C100.082839,18.0091433 98.4153613,19.5891338 95.5194778,19.5510391 L92.7288687,19.5510391 L94.0207476,10.0673995 L96.86764,10.0673995 C99.6437332,10.1780557 100.859438,11.7598602 100.518315,14.8092193 M97.0454595,9.17492841 L93.0282244,9.17492841 L91.498648,20.3890892 L95.4614143,20.3890892 C99.1338972,20.4634646 101.195118,18.5859723 101.643261,14.7529842 C102.022489,11.1467505 100.491098,9.28558456 97.0454595,9.17492841" id="形状结合" fill="#1882F0"></path>
                </g>
                <rect id="矩形备份-10" fill="#1882F0" x="145.006488" y="10.3898305" width="1" height="10.3728814"></rect>
            </g>
        </g>
    </g>
</svg>