<?xml version="1.0" encoding="UTF-8"?>
<svg width="24px" height="24px" viewBox="0 0 24 24" version="1.1" xmlns="http://www.w3.org/2000/svg" xmlns:xlink="http://www.w3.org/1999/xlink">
    <title>编组 11备份</title>
    <g id="子站-Pro" stroke="none" stroke-width="1" fill="none" fill-rule="evenodd">
        <g id="24/苍穹/合同" fill="#999999">
            <path d="M5,5 L7,5 L7,7 L5,7 L5,5 Z M5,11 L7,11 L7,13 L5,13 L5,11 Z M11,5 L13,5 L13,7 L11,7 L11,5 Z M11,11 L13,11 L13,13 L11,13 L11,11 Z M17,5 L19,5 L19,7 L17,7 L17,5 Z M17,11 L19,11 L19,13 L17,13 L17,11 Z M5,17 L7,17 L7,19 L5,19 L5,17 Z M11,17 L13,17 L13,19 L11,19 L11,17 Z M17,17 L19,17 L19,19 L17,19 L17,17 Z" id="形状结合"></path>
        </g>
    </g>
</svg>